<svg width="184" height="154" viewBox="0 0 184 154" fill="none" xmlns="http://www.w3.org/2000/svg">
<g clip-path="url(#clip0_77_17)">
<path d="M95.1378 0.600506L99.9605 0.67799L102.314 0.736103L106.594 0.929814L108.686 1.04604L112.521 1.36566L114.39 1.54L117.876 2.00491L119.581 2.25673L122.796 2.87661L124.384 3.20591L127.425 3.99044L136.383 7.04139L138.726 7.99057L143.2 10.2086L145.399 11.3611L149.563 13.9665L151.606 15.3128L155.461 18.2766L157.339 19.7972L160.864 23.0903L162.579 24.7756L165.745 28.3592L167.285 30.1898L170.094 34.0447L171.459 36.0011L173.89 40.0981L175.062 42.1708L177.105 46.4615L178.073 48.6311L179.72 53.0961L180.485 55.3431L181.715 59.9438L182.276 62.2586L183.07 66.9755L183.409 69.3387L183.758 74.1234L183.874 76.5254L183.758 81.3585L183.642 83.7799L183.061 88.6226L182.702 91.044L181.627 95.8771L179.448 103.054L178.49 105.727L176.204 110.764L174.994 113.243L172.156 117.95L170.665 120.275L167.227 124.75L161.32 131.297L159.054 133.583L154.241 137.651L151.8 139.598L146.677 142.968L144.072 144.566L138.659 147.249L135.918 148.499L130.243 150.465L127.376 151.366L121.479 152.615L118.515 153.148L112.424 153.671L109.364 153.835L103.118 153.622L99.9799 153.419L93.6173 152.46L91.6611 152.102L87.8649 151.191L85.9862 150.697L82.3352 149.496L80.5243 148.857L77.0186 147.375L75.2755 146.6L71.9053 144.818L70.23 143.898L66.9664 141.825L65.3588 140.75L62.2115 138.377L60.662 137.157L57.6211 134.484L53.1858 130.125L50.7938 127.607L46.1066 121.863L43.7727 118.88L39.2115 112.207L36.955 108.759L32.5487 101.204L30.3601 97.3106L26.1184 88.8938L24.0266 84.5838L19.9592 75.3438L17.9546 70.6172L14.0906 60.583L12.1925 55.4691L8.54156 44.6697L3.33145 27.6619L3.02156 26.6062L2.50829 24.7272L2.25651 23.8264L1.84977 22.2477L1.65608 21.4922L1.35587 20.204L1.21061 19.5842L1.01693 18.5478L0.842611 17.5696L0.794189 16.3298L1.14282 15.3903L1.25903 15.3128L1.71419 15.1288L1.96598 15.0223L2.68261 14.7704L3.45735 14.5186L5.68472 13.86L6.89524 13.5113L9.82956 12.7074L11.3693 12.3006L14.8169 11.4192L18.342 10.5282L26.0216 8.7073L27.9293 8.27145L31.6287 7.44818L36.8001 6.3634L39.5988 5.80164L44.7702 4.83308L47.2978 4.36818L52.043 3.56428L54.3672 3.19623L58.8123 2.56667L61.0106 2.26642L65.3007 1.79183L69.5714 1.34629L78.2291 0.85233L80.4468 0.755474L85.0856 0.648934L92.4843 0.59082M102.633 15.4775L100.929 15.5937L97.6363 16.0102L96.0093 16.2523L92.8329 16.9206L91.2544 17.2887L88.1748 18.2185L86.6447 18.7221L83.6232 19.9231L82.1125 20.5624L79.1298 22.0443L77.6384 22.8288L74.6557 24.6013L70.1525 27.6135L68.7967 28.5723L66.1917 30.7516L64.9133 31.8654L62.4632 34.3255L61.2624 35.5943L58.9963 38.2966L57.8923 39.6816L55.8296 42.6067L54.8321 44.0886L53.0018 47.1976L52.1205 48.7667L50.5517 52.0016L49.7963 53.6385L48.5083 56.98L46.9201 62.0746L46.6489 63.0916L46.2131 65.4064L46.0098 66.5977L45.7096 69.1838L45.4384 71.8182L45.3028 77.4843V80.3221L45.7096 85.7848L45.8451 87.102L46.2131 89.5621L46.9201 92.894L47.7432 96.0321L50.0093 101.94L51.2392 104.827L54.2801 110.212L55.8877 112.827L59.6451 117.641L61.611 119.965L66.0367 124.159L68.3222 126.173L73.358 129.709L75.9533 131.384L81.5508 134.203L84.4173 135.53L90.5378 137.602L100.232 139.811L100.919 139.917L102.633 140.043L103.544 140.092L105.587 140.101L107.708 140.072L112.482 139.714L114.884 139.491L119.571 138.794L120.694 138.6L122.777 138.164L123.784 137.941L125.537 137.447L128.016 136.702L132.683 134.803L134.979 133.777L139.337 131.316L141.486 130.019L145.602 126.958L151.558 121.66L153.137 120.101L155.974 116.895L157.339 115.277L159.76 111.945L160.923 110.27L162.927 106.793L163.876 105.04L165.484 101.417L166.23 99.577L167.44 95.7706L167.992 93.8431L168.815 89.843L169.174 87.8091L169.609 83.5958L169.851 77L169.842 75.8668L169.813 73.8716L169.793 72.9127L169.716 71.208L169.629 69.5615L169.299 66.7914L169.096 65.4355L168.447 62.7526L167.004 58.1326L166.462 56.5248L165.203 53.406L164.544 51.866L163.063 48.8926L162.298 47.4204L160.622 44.6116L159.751 43.2169L157.872 40.563L155.945 37.9576L151.568 33.2601L149.292 31.0034L144.266 27.0614L141.69 25.1921L136.121 22.0733L133.274 20.6205L127.251 18.3928L125.721 17.8892L122.583 17.0659L121.004 16.6882L117.789 16.107L116.172 15.8455L112.879 15.5162L107.873 15.3128H106.081L102.633 15.4775Z" fill="#0F4B81"/>
<path d="M114.806 85.0196L114.274 85.3393L115.145 84.8066M98.779 71.1209V82.3271L103.379 85.2133L103.834 85.5039L103.418 85.2521L102.682 84.7969L100.571 83.5571L99.2729 82.8694L98.7209 82.6079L97.7041 82.1624L97.3458 82.0462L96.7357 81.9106L96.6291 81.9687L96.3386 81.7265L96.1643 81.1648L96.0965 80.7193L95.9706 79.7313L95.9319 79.1115L95.8738 77.7942V77.0581L95.9319 74.9854L96.019 73.7844L96.0868 73.3195L96.2321 72.4865L96.3193 72.2347L96.5033 71.8667L96.6001 71.8957L97.3264 71.7311L98.1883 71.3824L98.7597 71.1112L99.0986 70.9466M157.814 74.8111L157.824 76.7094L157.804 78.6465L157.678 80.5933L157.62 80.1478L157.388 79.8476L156.836 79.4214H156.4L155.374 78.9952L154.947 78.3657V77.9686L155.374 76.9419L156.003 76.5157H156.4L156.962 76.2445L157.281 75.8184L157.407 75.5181L157.785 74.2106M118.67 72.1282L119 73.2227L119.029 74.0266V74.8886L119.009 75.4213L118.961 76.5448L118.922 77.2228L118.816 79.0049L118.729 79.9735L118.67 80.3803L118.632 80.5837V72.041M112.618 67.6341L113.209 67.9925L114.467 68.7576L115.213 69.2322L115.542 69.455L113.886 68.438L112.337 67.4791M104.105 68.2346L104.938 67.7697L106.062 67.1692L106.129 67.1401L104.105 68.2346Z" fill="#BF587C"/>
<path d="M92.252 125.496L90.0149 124.769L85.9766 123.064L84.0107 122.154L80.3985 120.004L78.636 118.861L75.2659 116.139L70.2882 111.297L68.7484 109.64L66.1046 106.134L64.8457 104.362L62.7442 100.652L61.7661 98.7828L60.1973 94.9183L59.4806 92.9715L58.4347 89.0005L57.9796 87.0052L57.4469 82.9664L57.2436 80.9518L57.2048 76.9032L57.2436 74.8789L57.6987 70.8691L57.9796 68.8642L58.8996 64.9319L59.4128 62.9851L60.7977 59.1787L61.5434 57.29L63.364 53.6676L64.3324 51.8758L66.5985 48.4762L67.78 46.8103L70.4625 43.6722L71.8474 42.1418L74.9463 39.333L76.5345 37.9771L80.0208 35.5266L81.8124 34.3547L85.6861 32.3207L91.9034 29.8025L92.8137 29.4925L94.8377 28.9792L95.8739 28.7371L98.1109 28.34L100.377 27.9816L105.248 27.6329L107.689 27.5264L112.463 27.7104L113.625 27.7879L115.823 28.0494L118.874 28.6015L120.404 28.9598L123.91 30.1318L125.701 30.7807L129.333 32.3691L131.124 33.2021L134.417 34.9842L135.192 35.4298L136.596 36.3208L138.417 37.6284L140.77 39.4977L135.269 42.6067L129.769 45.7061V55.1011V64.4864L137.574 69.0483L138.649 69.6778L140.683 70.8207L141.671 71.3631L143.394 72.2735L144.198 72.6803L145.418 73.2518L146.445 73.6101H146.59L147.191 73.4164L147.539 73.2905L148.44 72.8837L151.732 71.1403L152.885 70.4623L154.986 69.5713L155.451 69.3969L156.197 69.2226L156.894 69.2613L157.097 69.3872L157.407 69.8522L157.543 70.1234L157.727 70.811L157.892 71.5374L157.872 73.2615L157.814 74.1041L157.407 75.5182L157.281 75.8184L156.962 76.2446L156.4 76.5158H156.003L155.374 76.942L154.948 77.9686V78.3657L155.374 78.9953L156.4 79.4215H156.836L157.388 79.8476L157.62 80.1479L157.775 81.2908L157.795 81.6394L157.746 82.4918L157.717 82.947L157.572 84.0318L157.485 84.6129L157.252 85.9689L156.778 88.3321L156.323 90.5211L154.889 94.8021L154.086 96.9232L152.023 101.02L150.919 103.035L148.295 106.861L146.919 108.73L143.811 112.207L142.203 113.902L138.688 116.953L136.887 118.415L133.032 120.963L131.076 122.173L126.97 124.14L120.607 126.348L118.467 126.9L113.761 127.539L111.359 127.772L106.391 127.781L103.912 127.704L99.0406 127.094L96.6583 126.706M87.1581 92.0127V90.8698L86.6255 89.1361L86.2768 88.3612L85.1535 87.3927L84.524 87.0246L82.9164 86.9181L80.0886 87.7995L79.372 88.1772L78.3939 89.1554L77.9871 89.6688L77.5707 90.831L77.4351 91.4218L77.5126 92.6228L77.6095 93.2233L78.113 94.3469L78.4133 94.8893L79.2655 95.7997L79.7303 96.2162L80.8537 96.7876L81.4444 97.0201L82.7808 97.1169L84.9307 96.5842L85.3665 96.3905L86.0154 95.9353L86.3059 95.6835L86.6933 95.0442L86.8676 94.6955L87.0516 93.7851L87.129 93.2911M114.274 85.3393L114.807 85.0197L115.688 84.4676L116.095 84.2061L116.753 83.7315L117.363 83.2666L118.089 82.3174L118.38 81.7944L118.671 80.3803L118.729 79.9735L118.816 79.005L118.922 77.2228L118.961 76.5449L119.009 75.4213L119.029 74.8886V74.0266L119 73.2227L118.671 72.1283L118.438 71.6246L117.518 70.782L115.213 69.2323L114.468 68.7577L113.209 67.9925L112.618 67.6342L111.611 67.0918L111.127 66.8593L110.274 66.5494L109.868 66.4235L109.083 66.346L108.299 66.3266L106.546 66.9562L106.062 67.1693L104.938 67.7698L102.934 68.903L102.159 69.3485L100.697 70.133L99.9897 70.5108L98.7598 71.1113L98.1884 71.3825L97.3265 71.7311L96.6002 71.8958L96.5034 71.8667L96.3194 72.2348L96.2322 72.4866L96.0869 73.3196L96.0192 73.7845L95.932 74.9855L95.8739 77.0582V77.7943L95.932 79.1115L95.9707 79.7314L96.0966 80.7193L96.1644 81.1649L96.3387 81.7266L96.6293 81.9688L96.7358 81.9106L97.3459 82.0462L97.7042 82.1625L98.721 82.608L99.273 82.8695L100.571 83.5572L102.682 84.7969L103.418 85.2521L104.822 86.0754L105.5 86.4628L106.711 87.1118L107.272 87.4023L108.153 87.7995L108.948 88.0416L109.083 88.0319L109.664 87.8091L110.003 87.6735L110.913 87.228L111.872 86.734L114.274 85.3393Z" fill="#C0587D"/>
</g>
<defs>
<clipPath id="clip0_77_17">
<rect width="184" height="154" fill="white"/>
</clipPath>
</defs>
</svg>
