<svg width="176" height="219" viewBox="0 0 176 219" fill="none" xmlns="http://www.w3.org/2000/svg">
<path d="M131.48 119.19L131.448 119.244L131.446 119.439L131.528 119.591L131.601 119.652L131.852 119.775L131.96 119.739L131.981 119.669L131.998 119.503L131.971 119.382L131.941 119.286L131.987 119.395L132.104 119.671L132.443 120.527L132.468 120.592L132.55 120.803L132.596 120.922L132.717 121.225L132.782 121.386L132.936 121.769L133.016 121.969L133.196 122.416L133.382 122.876L133.81 123.933L134.492 125.609L134.724 126.176L135.175 127.285L135.395 127.827L135.79 128.802L135.884 129.032L136.053 129.448L136.134 129.649L136.272 129.992L136.337 130.155L136.44 130.414L136.55 130.69L136.653 130.955L136.914 131.594L136.979 131.749L137.104 132.042L137.267 132.416L137.361 132.627L137.55 133.099L137.594 133.212L137.669 133.415L137.75 133.663L137.788 133.795L137.922 134.171L138.141 134.718L138.158 134.758L138.212 134.883L138.241 134.952L138.315 135.13L138.396 135.32L138.607 135.828L138.718 136.098L138.971 136.714L139.372 137.69L139.506 138.02L139.782 138.689L139.916 139.019L140.171 139.636L140.294 139.932L140.499 140.427L140.547 140.538L140.626 140.728L140.719 140.95L140.746 141.01L140.819 141.184L140.858 141.28L140.955 141.52L141.007 141.646L141.128 141.942L141.189 142.095L141.325 142.432L141.463 142.78L141.776 143.564L142.259 144.785L142.42 145.194L142.734 145.988L142.89 146.373L143.166 147.062L143.233 147.225L143.352 147.516L143.407 147.654L143.505 147.892L143.553 148.005L143.626 148.18L143.706 148.362L143.781 148.529L143.902 148.826L143.927 148.891L143.961 148.995L143.983 149.093V149.11L144.011 149.204L144.03 149.259L144.09 149.417L144.347 150.021L144.372 150.076L144.447 150.253L144.489 150.352L144.596 150.606L144.654 150.742L144.786 151.062L144.855 151.229L145.008 151.605L145.167 151.99L145.528 152.874L146.093 154.278L146.283 154.752L146.649 155.664L146.828 156.106L147.146 156.884L147.219 157.068L147.353 157.392L147.416 157.548L147.524 157.808L147.573 157.931L147.652 158.119L147.733 158.305L147.75 158.345L147.8 158.462L147.828 158.526L147.896 158.687L147.965 158.859L148.145 159.302L148.241 159.538L148.452 160.068L148.778 160.894L148.885 161.17L149.098 161.705L149.199 161.966L149.385 162.428L149.473 162.647L149.611 162.982L149.642 163.057L149.692 163.172L149.744 163.291L149.769 163.343L149.836 163.5L149.87 163.585L149.953 163.788L150.2 164.442L150.238 164.547L150.355 164.852L150.419 165.017L150.572 165.406L151.08 166.647L151.12 166.747L151.233 167.019L151.295 167.165L151.442 167.523L151.519 167.711L151.696 168.139L151.786 168.362L151.983 168.847L152.186 169.341L152.631 170.435L153.31 172.112L153.532 172.667L153.962 173.723L154.067 173.98L154.265 174.464L154.36 174.699L154.539 175.135L154.625 175.344L154.778 175.716L154.851 175.894L154.976 176.191L155.033 176.329L155.122 176.54L155.21 176.744L155.286 176.911L155.405 177.21L155.43 177.277L155.465 177.382L155.486 177.482V177.501L155.507 177.582L155.522 177.628L155.566 177.754L155.762 178.22L155.789 178.276L155.867 178.462L155.911 178.564L156.025 178.832L156.086 178.974L156.226 179.312L156.299 179.488L156.462 179.881L156.63 180.288L157.008 181.212L157.202 181.684L157.601 182.664L157.798 183.151L158.172 184.077L158.262 184.301L158.431 184.721L158.513 184.927L158.661 185.297L158.732 185.475L158.852 185.784L158.91 185.928L159 186.161L159.042 186.267L159.096 186.411L159.129 186.512V186.528L159.159 186.62L159.18 186.675L159.245 186.838L159.525 187.483L159.579 187.602L159.725 187.937L159.801 188.116L159.974 188.53L160.494 189.822L160.651 190.225L160.95 190.971L161.017 191.138L161.128 191.408L161.241 191.673L161.266 191.725L161.339 191.897L161.377 191.991L161.473 192.225L161.782 193.015L161.809 193.081L161.884 193.272L161.924 193.378L162.027 193.637L162.081 193.775L162.209 194.093L162.275 194.258L162.42 194.622L162.572 194.996L162.911 195.834L163.442 197.138L163.674 197.706L164.123 198.803L164.343 199.346L164.769 200.389L164.978 200.903L165.379 201.89L165.576 202.377L165.954 203.308L166.14 203.764L166.491 204.633L166.661 205.058L166.987 205.862L167.144 206.255L167.442 206.993L167.585 207.354L167.854 208.023L167.982 208.349L168.22 208.946L168.335 209.235L168.542 209.759L168.642 210.01L168.816 210.457L168.899 210.67L169.041 211.036L169.106 211.21L169.213 211.494L169.263 211.626L169.336 211.826L169.366 211.916L169.403 212.027L169.414 212.096H169.409L169.328 212.002L169.28 211.941L169.133 211.743L169.05 211.636L168.853 211.364L168.749 211.22L168.521 210.898L168.406 210.733L168.182 210.416L168.074 210.265L167.881 209.995L167.79 209.87L167.652 209.676L167.526 209.507L167.509 209.484L167.43 209.381L167.384 209.319L167.248 209.135L167.173 209.032L166.972 208.76L166.864 208.612L166.594 208.242L166.45 208.044L166.105 207.571L165.921 207.319L165.496 206.734L165.273 206.426L164.759 205.722L163.889 204.521L163.803 204.403L163.576 204.092L163.456 203.923L163.168 203.528L163.019 203.321L162.683 202.855L162.51 202.615L162.137 202.097L161.755 201.57L160.929 200.423L159.683 198.694L159.278 198.13L158.465 197L158.066 196.446L157.33 195.424L157.156 195.18L156.836 194.735L156.68 194.519L156.406 194.139L156.278 193.961L156.063 193.662L155.819 193.324L155.568 192.975L155.041 192.231L154.916 192.056L154.7 191.746L154.451 191.385L154.387 191.293L154.192 191.015L154.086 190.864L153.826 190.503L152.967 189.322L152.825 189.13L152.491 188.674L152.321 188.44L151.96 187.943L151.78 187.694L151.433 187.214L150.98 186.581L150.86 186.413L150.584 186.027L150.442 185.828L150.137 185.402L149.826 184.971L149.188 184.081L149.033 183.866L148.737 183.456L148.593 183.256L148.335 182.899L148.212 182.729L148.007 182.447L147.777 182.132L147.742 182.086L147.604 181.897L147.527 181.789L147.32 181.502L147.211 181.348L146.962 181.001L146.571 180.453L146.439 180.268L146.101 179.797L145.923 179.549L145.528 179.001L145.328 178.725L144.926 178.17L144.366 177.401L144.195 177.166L143.806 176.631L143.609 176.358L143.204 175.796L143.005 175.518L142.631 174.997L142.161 174.335L142.096 174.241L141.935 174.015L141.851 173.898L141.659 173.629L141.461 173.351L141.001 172.713L140.765 172.385L140.271 171.704L139.556 170.722L139.103 170.103L138.173 168.816L137.957 168.513L137.581 167.989L137.495 167.869L137.343 167.658L137.159 167.395L137.107 167.322L136.954 167.103L136.87 166.985L136.657 166.687L136.544 166.528L136.281 166.162L136.145 165.972L135.842 165.55L135.53 165.117L134.826 164.143L133.725 162.62L133.348 162.098L132.677 161.172L132.353 160.727L131.783 159.937L131.509 159.559L131.024 158.886L130.79 158.562L130.374 157.985L130.175 157.705L129.814 157.201L129.638 156.955L129.318 156.503L128.424 155.237L128.313 155.078L128.058 154.719L127.926 154.535L127.654 154.159L127.519 153.973L127.263 153.626L126.933 153.187L126.839 153.062L126.592 152.729L126.461 152.552L126.168 152.149L125.29 150.92L125.157 150.732L124.82 150.255L124.642 150.005L124.247 149.453L124.047 149.175L123.645 148.617L123.085 147.846L122.914 147.61L122.525 147.077L122.328 146.803L121.923 146.243L121.724 145.967L121.35 145.447L120.88 144.789L120.748 144.605L120.489 144.241L120.363 144.062L120.132 143.74L120.023 143.587L119.849 143.343L119.68 143.107L119.645 143.061L119.525 142.895L119.458 142.801L119.285 142.561L118.675 141.717L118.466 141.428L118.066 140.875L117.976 140.751L117.826 140.545L117.671 140.334L117.638 140.29L117.502 140.101L117.423 139.993L117.218 139.705L117.109 139.554L116.862 139.205L116.471 138.655L116.338 138.469L116.022 138.026L115.859 137.797L115.512 137.312L115.338 137.071L115.002 136.605L114.553 135.989L114.289 135.628L113.792 134.934L113.679 134.775L113.495 134.512L113.307 134.24L113.229 134.119L112.989 133.784L112.63 133.3L112.577 133.231L112.435 133.04L112.36 132.936L112.189 132.698L111.672 131.95L111.633 131.893L111.522 131.732L111.463 131.645L111.315 131.436L111.16 131.216L110.763 130.664L110.554 130.374L110.092 129.735L109.377 128.757L109.176 128.485H109.178L109.21 128.443L109.218 128.378L109.216 128.332L109.193 128.107L109.164 127.965L109.097 127.672L109.055 127.53L108.961 127.262L108.913 127.171L108.817 126.974L108.788 126.89L108.792 126.867L108.813 126.836L108.842 126.838L108.915 126.851L108.97 126.872L109.199 126.886L109.335 126.828L109.369 126.773L109.565 126.627L109.76 126.567H109.862L110.052 126.546L110.215 126.514L110.305 126.489L110.683 126.376L110.857 126.301L111.469 126.055L111.957 125.871L112.228 125.772L113.367 125.361L113.942 125.164L114.513 124.972L114.778 124.884L115.293 124.717L115.518 124.646L115.941 124.517L116.102 124.473L116.39 124.397L116.471 124.383L116.854 124.247L116.996 124.186L117.147 124.13L117.243 124.097L117.671 123.954L117.908 123.883L118.572 123.654L118.748 123.58L118.815 123.547L118.928 123.488L118.953 123.467L119.208 123.353L119.446 123.307H119.565L119.904 123.252L120.081 123.167L120.113 123.116L120.332 122.979L120.562 122.924H120.688L121.045 122.868L121.231 122.784L121.264 122.732L121.473 122.596L121.693 122.54H121.812L122.169 122.488L122.374 122.414L122.424 122.364L122.544 122.301L122.703 122.233L122.82 122.187L123.073 122.09L123.233 122.032L123.568 121.907L123.764 121.838L124.17 121.693L124.396 121.614L124.862 121.451L125.113 121.365L126.16 121.008L126.728 120.82L128.355 120.272L128.858 120.101L129.09 120.022L129.54 119.865L129.743 119.794L130.133 119.658L130.299 119.599L130.616 119.485L130.742 119.439L130.972 119.353L131.049 119.322L131.181 119.269L131.204 119.255L131.431 119.165M46.3351 148.339L46.3371 148.364L46.3275 148.515L46.3006 148.657L46.2815 149.085L46.3428 149.252L46.4023 149.271H46.5365L46.6227 149.204L46.7416 149.087L46.6822 149.179L46.5614 149.365L46.2911 149.789L46.1473 150.009L45.8233 150.514L45.6545 150.776L45.2673 151.378L44.6039 152.408L44.4908 152.587L44.207 153.024L44.0594 153.252L43.7392 153.745L43.5782 153.992L43.2619 154.481L42.8305 155.141L42.702 155.338L42.4586 155.714L42.3416 155.897L42.1384 156.213L42.0444 156.361L41.9064 156.583L41.7952 156.771L41.7818 156.798L41.6725 156.974L41.6073 157.08L41.4118 157.385L41.3063 157.55L41.0494 157.945L40.6257 158.593L40.4493 158.861L40.1253 159.354L39.97 159.592L39.6882 160.021L39.5521 160.229L39.3124 160.599L39.1974 160.775L38.998 161.086L38.9021 161.233L38.7449 161.483L38.6701 161.6L38.5513 161.79L38.4957 161.878L38.4171 162.008L38.3442 162.141L38.3385 162.154L38.302 162.213L38.2809 162.25L38.2177 162.351L38.1487 162.461L37.9435 162.783L37.8323 162.957L37.5639 163.374L37.1153 164.058L36.983 164.261L36.7433 164.626L36.6283 164.804L36.4117 165.134L36.2008 165.46L35.7924 166.093L35.687 166.256L35.4626 166.605L35.3476 166.785L35.0945 167.184L34.9623 167.391L34.6651 167.859L34.157 168.661L33.9902 168.925L33.672 169.422L33.5991 169.535L33.4822 169.719L33.3614 169.907L33.3096 169.988L33.1486 170.233L33.0623 170.367L32.8437 170.705L32.7287 170.881L32.4699 171.282L32.3376 171.489L32.0519 171.928L31.7663 172.373L31.1892 173.269L31.0492 173.484L30.7904 173.884L30.4511 174.414L30.3322 174.598L30.0484 175.041L29.9008 175.269L29.5883 175.756L29.4311 176L29.1263 176.471L28.7236 177.098L28.6029 177.283L28.3134 177.737L28.1619 177.973L27.836 178.485L27.6711 178.742L27.3509 179.246L26.9176 179.931L26.7892 180.136L26.4767 180.627L26.3156 180.88L25.9724 181.419L25.7999 181.688L25.4644 182.211L25.0158 182.903L24.9506 183.005L24.7742 183.277L24.6802 183.423L24.454 183.774L24.3352 183.958L24.0687 184.372L23.9325 184.585L23.6335 185.049L23.3305 185.523L22.6672 186.557L21.6645 188.125L21.3366 188.639L20.6752 189.671L20.3512 190.179L19.7511 191.117L19.6073 191.341L19.3446 191.752L19.2162 191.949L18.9919 192.3L18.8864 192.465L18.7081 192.741L18.5049 193.057L18.3995 193.222L18.1311 193.639L17.9911 193.857L17.6824 194.339L17.5271 194.582L17.2146 195.069L16.7871 195.742L16.6567 195.947L16.3365 196.45L16.1697 196.711L15.8093 197.274L15.6291 197.558L15.2725 198.114L14.7913 198.864L14.6456 199.089L14.3158 199.603L14.1452 199.865L13.7962 200.41L13.6237 200.678L13.2978 201.187L12.8817 201.837L12.7629 202.021L12.4676 202.479L12.3162 202.717L11.9806 203.235L11.8138 203.495L11.4802 204.011L11.0259 204.713L10.8897 204.924L10.5734 205.415L10.4104 205.666L10.073 206.192L9.9043 206.453L9.58604 206.947L9.17384 207.59L9.05498 207.774L8.77506 208.213L8.62935 208.439L8.32452 208.919L8.17114 209.156L7.87589 209.619L7.4867 210.227L7.37166 210.405L7.15885 210.729L7.05724 210.884L6.88278 211.141L6.80225 211.258L6.6853 211.419L6.59711 211.521H6.58752L6.61053 211.419L6.62779 211.352L6.69489 211.141L6.73323 211.024L6.83293 210.729L6.88853 210.574L7.01506 210.227L7.14735 209.87L7.43685 209.135L7.50395 208.963L7.62665 208.666L7.77428 208.328L7.85097 208.161L7.96983 207.862L7.99476 207.795L8.03118 207.689L8.05227 207.59V207.571L8.07336 207.49L8.0887 207.444L8.1328 207.317L8.32835 206.851L8.34752 206.809L8.40121 206.685L8.43188 206.616L8.50474 206.443L8.57951 206.259L8.77506 205.778L8.87859 205.522L9.10674 204.945L9.46142 204.042L9.64164 203.576L10.0558 202.514L10.2686 201.967L10.7229 200.801L10.953 200.212L11.4227 199.02L11.6547 198.427L12.1053 197.28L12.3257 196.722L12.7303 195.698L12.8261 195.455L13.0063 195L13.0926 194.782L13.2498 194.385L13.3265 194.195L13.4588 193.863L13.5202 193.708L13.6237 193.453L13.6697 193.336L13.7406 193.165L13.802 193.015L13.8269 192.962L13.9074 192.768L13.9515 192.659L14.0627 192.379L14.4481 191.385L14.4922 191.27L14.6149 190.954L14.6801 190.781L14.843 190.363L14.9293 190.143L15.1268 189.636L15.2284 189.376L15.4527 188.802L15.6828 188.215L16.1985 186.902L16.4631 186.234L17.0057 184.859L17.2741 184.177L17.7917 182.871L17.9163 182.556L18.1541 181.96L18.2691 181.668L18.4819 181.135L18.5835 180.878L18.7657 180.424L18.8519 180.207L18.9957 179.848L19.0628 179.682L19.1644 179.434L19.2584 179.208L19.2929 179.129L19.3753 178.926L19.4175 178.821L19.5057 178.585L19.7453 177.894L19.8105 177.693L19.9888 177.225L20.0348 177.112L20.125 176.905L20.2457 176.648L20.3186 176.508L20.4336 176.241L20.5122 175.977V175.954L20.5352 175.865L20.5487 175.816L20.5947 175.685L20.7883 175.21L20.8075 175.167L20.8938 174.964L20.9436 174.841L21.0874 174.49L21.166 174.299L21.3596 173.821L21.4613 173.568L21.6971 172.981L21.8198 172.674L22.092 171.997L22.2301 171.648L22.5291 170.899L23.4954 168.469L23.8309 167.625L24.4598 166.041L24.6112 165.659L24.8969 164.946L25.0349 164.599L25.288 163.966L25.4088 163.661L25.6216 163.13L25.7232 162.879L25.89 162.465L25.9667 162.275L26.0779 161.999L26.1795 161.757L26.1968 161.717L26.2447 161.6L26.2715 161.536L26.3386 161.375L26.4077 161.203L26.5879 160.76L26.6818 160.524L26.8927 159.995L27.2206 159.168L27.4372 158.614L27.8877 157.507L27.9932 157.25L28.1772 156.817L28.3843 156.341L28.4878 156.119L28.6489 155.703L28.6815 155.609L28.7294 155.455L28.7582 155.306V155.292L28.7754 155.227L28.785 155.187L28.8157 155.093L28.9192 155.087L29.0016 155.034L29.1799 154.897L29.2681 154.8L29.4368 154.587L29.4905 154.47L29.7379 154.153L29.9468 154.031L30.0427 154.036L30.2306 154.021L30.3916 153.988L30.4836 153.963L30.8748 153.837L31.0588 153.753L31.4173 153.601L31.7241 153.482L31.8986 153.417L32.6328 153.15L32.976 153.039L33.9538 152.696L34.2241 152.592L34.3277 152.55L34.5098 152.472L34.5558 152.447L34.9009 152.318L35.1597 152.264H35.2633L35.5623 152.209L35.7234 152.124L35.756 152.073L35.9745 151.937L36.2046 151.881H36.3311L36.6877 151.825L36.8737 151.741L36.9063 151.689L37.0846 151.553L37.2591 151.497H37.3492L37.5352 151.469L37.7039 151.423L37.8036 151.388L38.2292 151.227L38.4401 151.123L38.8504 150.945L39.205 150.809L39.4044 150.736L40.2499 150.445L40.6449 150.329L42.9033 149.61L43.6127 149.359L43.9348 149.238L44.556 148.999L44.8206 148.887L45.3727 148.699L45.5472 148.655L45.6219 148.642L45.7619 148.621H45.8118L46.0993 148.55L46.2546 148.446L46.2853 148.381L46.3217 148.329M30.4089 150.895L30.3207 151.114L30.1347 151.576L30.0312 151.837L29.8203 152.372L29.7494 152.552L29.7609 152.521L30.1884 151.434L30.2881 151.181L30.4664 150.746L30.5316 150.596M31.2755 148.79L31.2524 148.851L31.2793 148.784M31.5477 148.093L31.4308 148.396L31.5535 148.08M49.2953 145.098L49.4219 144.901L49.1535 145.317M102.157 118.807L102.776 119.648L103.046 120.013L103.47 120.586L103.771 121L103.919 121.204L104.21 121.608L104.338 121.79L104.584 122.136L104.676 122.27L104.85 122.519L104.998 122.73L105.065 122.824L104.927 122.632L104.672 122.279L104.168 121.585L103.487 120.648L103.319 120.414L103.004 119.98L102.851 119.769L102.567 119.378L102.291 118.996L101.881 118.431M131.227 117.474L131.285 117.606L131.381 117.834L131.423 117.942L131.482 118.101L131.521 118.231V118.25L131.542 118.329L131.557 118.375L131.603 118.5L131.71 118.755L131.607 118.532L131.559 118.411L131.546 118.365L131.523 118.283V118.262L131.484 118.118L131.423 117.951L131.381 117.844L131.214 117.443M100.161 116.047L100.121 115.989L100.013 115.836L99.8867 115.652L100.101 115.963M91.8613 87.7074L92.0568 87.4025L92.6569 86.4781L92.8103 86.2423L93.1305 85.7494L93.6481 84.9536L92.283 87.0554M63.2315 67.8344L63.268 67.679ZM59.0789 129.818L58.2832 131.074ZM88.2013 93.3933L88.5502 92.8525L88.7228 92.586L89.041 92.0912L89.4379 91.4737L89.6891 91.0844L90.1338 90.3902L90.3486 90.0546L90.7358 89.4544L90.9237 89.1629L91.0867 88.9078L90.7819 89.3834L90.4751 89.859L90.3179 90.1026L90.0073 90.5877L89.8616 90.814L89.5836 91.2474L89.4686 91.4258L89.0602 92.0624L88.7343 92.5668L88.5598 92.8391L88.2051 93.3876L88.0307 93.656L87.6894 94.1834L88.0287 93.6599L88.2013 93.3933Z" fill="#93E5FC"/>
<path d="M73.5346 106.198L73.5749 106.236L73.6267 106.34L73.6036 106.424L73.5193 106.612L73.4196 106.731L73.2873 106.969L73.2701 107.105L73.3046 107.137L73.3276 107.298L73.272 107.446L73.2125 107.517L73.0956 107.699L73.0822 107.774H73.1128L73.1857 107.718L73.2681 107.621L73.3295 107.54L73.4656 107.35L73.5557 107.218L73.7551 106.926L73.8816 106.737L74.0158 106.533L73.9162 106.687L73.5135 107.312L73.3103 107.626L72.9058 108.255L72.7064 108.562L72.3498 109.122L72.2654 109.255L72.114 109.492L71.9165 109.801L71.8015 109.983L71.5273 110.415L71.3854 110.637L71.0863 111.105L70.9368 111.339L70.6492 111.788L70.2696 112.377L70.1584 112.547L69.9034 112.944L69.7731 113.145L69.5027 113.567L69.3685 113.774L69.1155 114.17L68.7914 114.678L68.6036 114.975L68.153 115.679L67.9153 116.049L67.3689 116.904L67.0813 117.351L66.4352 118.36L65.3481 120.047L65.2043 120.272L64.8669 120.797L64.6944 121.067L64.3301 121.637L64.1499 121.919L63.8029 122.46L63.3523 123.167L63.2219 123.373L62.8941 123.885L62.7216 124.153L62.3458 124.74L62.1541 125.035L61.7744 125.622L61.253 126.427L61.1724 126.548L60.9846 126.842L60.8849 126.995L60.6625 127.342L60.4324 127.699L59.9052 128.522L59.6348 128.943L59.0789 129.818L58.2832 131.074L58.034 131.469L57.4876 132.33L57.2115 132.763L56.6613 133.626L56.3928 134.046L55.9039 134.806L55.7889 134.986L55.5819 135.306L55.3135 135.721L55.1562 135.964L54.792 136.526L54.606 136.814L54.2226 137.408L54.0308 137.703L53.6742 138.263L53.2141 138.981L52.8843 139.502L52.2478 140.503L51.9315 140.996L51.3237 141.947L49.5599 144.69L49.2953 145.098L48.7738 145.909L48.5169 146.308L48.0357 147.064L47.8037 147.428L47.3954 148.074L47.2995 148.228L47.127 148.504L46.9007 148.866L46.8029 149.025L46.6227 149.204L46.5365 149.271H46.4023L46.3428 149.252L46.2815 149.085L46.3006 148.657L46.3275 148.515L46.3371 148.364L46.3351 148.339L46.3217 148.329L46.2853 148.381L46.2546 148.446L46.0993 148.55L45.8117 148.621H45.7619L45.6219 148.642L45.5472 148.655L45.3727 148.699L44.8206 148.887L44.556 148.999L43.9348 149.238L43.6127 149.359L42.9033 149.61L40.6449 150.329L40.2499 150.445L39.4044 150.736L39.205 150.809L38.8504 150.945L38.4401 151.123L38.2292 151.227L37.8036 151.388L37.7039 151.423L37.5351 151.469L37.3492 151.497H37.2591L37.0846 151.553L36.9063 151.689L36.8737 151.741L36.6877 151.825L36.3311 151.881H36.2046L35.9745 151.936L35.756 152.073L35.7234 152.124L35.5623 152.209L35.2633 152.264H35.1597L34.9009 152.318L34.5558 152.447L34.5098 152.472L34.3277 152.55L34.2241 152.592L33.9538 152.696L32.976 153.039L32.6328 153.15L31.8985 153.417L31.7241 153.482L31.4173 153.601L31.0588 153.753L30.8748 153.837L30.4836 153.963L30.3916 153.988L30.2306 154.021L30.0427 154.036L29.9468 154.031L29.7379 154.153L29.4905 154.47L29.4368 154.587L29.2681 154.8L29.1799 154.897L29.0016 155.034L28.9192 155.087L28.8118 155.095L28.7927 155.085L28.7831 155.035V155.003L28.8176 154.903L28.8253 154.886L28.8559 154.813L28.8732 154.771L28.9211 154.65L28.9729 154.52L29.1224 154.142L29.203 153.937L29.3966 153.45L29.711 152.648L29.8203 152.372L30.0312 151.837L30.1347 151.576L30.3207 151.114L30.4089 150.895L30.5469 150.56L30.5776 150.485L30.6274 150.37L30.6773 150.251L30.7003 150.205L30.7578 150.069L30.7904 149.996L30.8671 149.81L30.9476 149.612L31.1623 149.077L31.2755 148.79L31.5477 148.093L32.0097 146.895L32.1018 146.657L32.3146 146.116L32.3644 145.986L32.4603 145.748L32.5792 145.457L32.6443 145.297L32.8207 144.853L33.068 144.21L33.1946 143.871L33.4534 143.196L33.5819 142.866L33.8177 142.26L33.9308 141.972L34.1187 141.508L34.1609 141.403L34.2318 141.234L34.3142 141.046L34.3257 141.021L34.366 140.927L34.389 140.873L34.4504 140.72L34.4849 140.636L34.5711 140.425L34.6152 140.311L34.7226 140.045L34.7801 139.905L34.9086 139.581L34.9738 139.414L35.1233 139.038L35.2 138.844L35.3706 138.417L35.4569 138.196L35.6448 137.717L35.7426 137.471L35.9496 136.944L36.057 136.676L36.2832 136.1L36.5133 135.513L37.0271 134.202L37.2936 133.525L37.8726 132.042L38.8139 129.636L39.0152 129.122L39.3948 128.153L39.4869 127.919L39.6594 127.482L39.7438 127.269L39.8972 126.882L39.9719 126.696L40.1023 126.368L40.1636 126.213L40.2672 125.958L40.3151 125.839L40.3841 125.666L40.4493 125.513L40.4742 125.461L40.5586 125.258L40.6065 125.144L40.7254 124.847L41.1414 123.787L41.1759 123.695L41.268 123.463L41.3159 123.34L41.429 123.056L41.5479 122.761L41.8355 122.059L42.7806 119.792L42.934 119.426L43.2158 118.736L43.3501 118.402L43.5744 117.821L43.6242 117.687L43.7124 117.449L43.7527 117.336L43.8159 117.146L43.8447 117.059L43.8811 116.929L43.9041 116.81V116.718L43.954 116.524L44.0728 116.298L44.0958 116.273L44.1572 116.168L44.1898 116.106L44.1936 116.097L44.1783 116.129L44.1438 116.197L44.0805 116.315L44.0537 116.348L43.9655 116.576L43.9712 116.741L44.0096 116.803L44.1073 116.91L44.163 116.889L44.2205 116.854L44.2511 116.816L44.3144 116.73L44.3489 116.668L44.5521 116.352L44.7017 116.156L44.7592 116.097L45.0027 115.917L45.2404 115.78L45.388 115.706L45.7006 115.558L45.8789 115.481L46.247 115.328L46.4425 115.253L47.2535 114.962L47.6523 114.845L48.0453 114.731L48.2294 114.687L48.586 114.607L48.7432 114.58L49.326 114.453L49.7152 114.342L49.8475 114.292L50.3095 114.143L50.6335 114.062L50.7505 114.045L51.1608 113.901L51.4503 113.734L51.5557 113.64L51.803 113.5L52.0887 113.374L52.2804 113.299L52.6926 113.144L52.9323 113.059L53.4288 112.885L53.6972 112.795L54.8111 112.436L55.3499 112.279L55.879 112.127L56.1206 112.062L56.5846 111.943L56.7782 111.901L57.1636 111.769L57.4914 111.627L57.6409 111.55L57.8001 111.477L57.9496 111.414L58.0416 111.377L58.4634 111.214L58.7318 111.117L59.2955 110.913L59.6099 110.804L60.2541 110.582L60.5839 110.47L61.5444 110.148L62.1368 109.947L62.3899 109.86L62.8577 109.698L63.0264 109.636L63.1817 109.581L63.2373 109.559L63.337 109.521L63.3638 109.51L63.8642 109.306L64.2515 109.155L64.4375 109.084L64.7979 108.948L64.9302 108.902L65.0529 108.858L65.097 108.844L65.1717 108.821L65.1852 108.817L65.3999 108.762L65.6645 108.685L65.8389 108.631L66.2147 108.518L66.4294 108.451L66.8685 108.315L67.0966 108.242L67.5529 108.098L67.7715 108.029L68.1971 107.893L68.3812 107.834L68.7263 107.718L68.8528 107.676L69.0714 107.601L69.1155 107.582L69.9705 107.249L70.4613 107.072L70.6665 107.009L71.0518 106.896L71.2014 106.863L71.4775 106.815H71.5733L71.9491 106.748L72.1772 106.648L72.2405 106.585L72.4035 106.459L72.4706 106.443V106.478L72.5128 106.505L72.5779 106.499L72.6259 106.483L72.8521 106.403L72.9978 106.326L73.364 106.196M119.739 90.2157L119.774 90.2291L119.826 90.2675V90.2982L119.856 90.394L119.904 90.4861L119.939 90.5398L120.104 90.7776L120.209 90.8984L120.479 91.1496L120.543 91.1803H120.548L120.65 91.4277L120.708 91.5677L120.834 91.8822L120.966 92.2063L121.267 92.9561L121.747 94.1585L121.908 94.5669L122.23 95.3724L122.387 95.7674L122.677 96.4827L122.746 96.6534L122.872 96.9602L122.932 97.1079L123.039 97.3648L123.089 97.4876L123.171 97.6832L123.265 97.898L123.288 97.9497L123.351 98.0993L123.386 98.1799L123.47 98.3774L123.557 98.5864L123.773 99.1157L123.888 99.3938L124.137 100.011L124.517 100.966L124.642 101.283L124.891 101.906L125.012 102.209L125.234 102.761L125.34 103.022L125.51 103.438L125.549 103.53L125.61 103.68L125.679 103.843L125.696 103.883L125.754 104.017L125.786 104.092L125.869 104.293L125.913 104.401L126.018 104.658L126.074 104.792L126.197 105.093L126.325 105.408L126.618 106.133L127.086 107.295L127.345 107.943L127.809 109.099L128.031 109.653L128.424 110.629L128.612 111.097L128.94 111.911L129.097 112.296L129.364 112.956L129.49 113.268L129.703 113.788L129.803 114.031L129.966 114.425L130.041 114.605L130.158 114.883L130.29 115.186L130.365 115.353L130.482 115.644L130.506 115.709L130.541 115.809L130.562 115.899V115.915L130.6 116.024L130.623 116.091L130.702 116.285L130.746 116.39L130.855 116.641L131.041 117.058L131.174 117.345L131.381 117.844L131.423 117.951L131.484 118.118L131.523 118.262V118.283L131.546 118.365L131.559 118.411L131.607 118.532L131.808 118.964L131.889 119.121L131.971 119.382L131.998 119.503L131.981 119.669L131.96 119.739L131.852 119.775L131.601 119.652L131.528 119.591L131.446 119.439L131.448 119.244L131.48 119.19L131.431 119.165L131.204 119.255L131.181 119.269L131.049 119.322L130.972 119.353L130.742 119.439L130.616 119.485L130.299 119.599L130.133 119.658L129.743 119.794L129.54 119.865L129.09 120.022L128.858 120.101L128.355 120.272L126.728 120.82L126.16 121.008L125.113 121.365L124.862 121.451L124.396 121.614L124.17 121.693L123.764 121.838L123.568 121.907L123.233 122.032L123.073 122.09L122.82 122.187L122.703 122.233L122.544 122.301L122.424 122.364L122.374 122.414L122.169 122.488L121.812 122.54H121.693L121.473 122.596L121.264 122.732L121.231 122.784L121.045 122.868L120.688 122.924H120.562L120.332 122.979L120.113 123.116L120.081 123.167L119.904 123.252L119.565 123.307H119.446L119.208 123.353L118.953 123.466L118.928 123.488L118.815 123.547L118.748 123.58L118.572 123.654L117.908 123.883L117.671 123.954L117.243 124.097L117.147 124.13L116.996 124.186L116.854 124.247L116.471 124.383L116.39 124.397L116.102 124.473L115.941 124.517L115.518 124.646L115.293 124.717L114.778 124.884L114.513 124.972L113.942 125.164L113.367 125.361L112.228 125.772L111.957 125.871L111.469 126.055L110.857 126.301L110.683 126.376L110.305 126.489L110.215 126.514L110.052 126.546L109.862 126.567H109.76L109.565 126.627L109.369 126.773L109.335 126.828L109.199 126.886L108.97 126.872L108.915 126.851L108.842 126.838L108.813 126.836L108.792 126.867L108.788 126.89L108.817 126.974L108.913 127.171L108.961 127.262L109.055 127.53L109.097 127.672L109.164 127.965L109.193 128.107L109.216 128.332L109.218 128.378L109.21 128.443L109.178 128.485H109.174L109.13 128.431L109.101 128.397L109.009 128.278L108.957 128.213L108.825 128.036L108.756 127.942L108.587 127.716L108.411 127.478L107.975 126.882L107.747 126.569L107.239 125.866L106.978 125.505L106.453 124.771L106.192 124.408L105.707 123.729L105.59 123.566L105.376 123.263L105.272 123.117L105.086 122.855L104.998 122.73L104.85 122.519L104.676 122.27L104.584 122.136L104.338 121.79L104.21 121.608L103.919 121.204L103.771 121L103.47 120.586L103.046 120.013L102.776 119.648L102.157 118.807L101.842 118.379L101.221 117.525L101.072 117.316L100.79 116.927L100.654 116.737L100.41 116.396L100.293 116.233L100.101 115.963L99.8867 115.652L99.8464 115.594L99.6988 115.383L99.6164 115.266L99.4016 114.967L98.6405 113.914L98.5082 113.734L98.1708 113.266L97.9925 113.021L97.5975 112.474L97.3982 112.196L96.9955 111.636L96.4357 110.856L96.0925 110.376L95.4138 109.429L95.2585 109.212L94.994 108.844L94.7102 108.449L94.645 108.359L94.4476 108.087L94.3421 107.937L94.091 107.584L93.2723 106.43L93.1419 106.244L92.8371 105.816L92.6799 105.596L92.329 105.107L92.1488 104.855L91.7596 104.316L91.5602 104.04L91.1423 103.463L90.7167 102.88L89.9862 101.879L90.199 102.151L90.2815 102.251L90.3562 102.339L90.3812 102.364L90.4214 102.405H90.4272L90.4348 102.362L90.4099 102.297L90.385 102.249L90.2565 102.023L90.1568 101.877L89.9325 101.505L89.829 101.279L89.8022 101.175L89.76 100.978L89.7638 100.89L89.7849 100.719L89.8194 100.644L89.9038 100.5L89.969 100.439L90.1166 100.32L90.2144 100.272L90.4272 100.178L90.5556 100.142L90.8317 100.073L90.9927 100.048L91.5353 99.9173L91.8862 99.7946L91.9993 99.7332L92.2888 99.6047L92.4096 99.5779V99.6009L92.5495 99.5779L92.77 99.5088L92.9311 99.4532L93.2819 99.3247L93.4947 99.2442L93.9395 99.0716L94.183 98.9738L94.5914 98.8146L94.9039 98.6957L95.0764 98.6324L95.8011 98.3678L96.1961 98.2278L96.9994 97.9478L97.4001 97.8117L98.188 97.5489L98.5446 97.4358L99.5876 97.0964L100.236 96.8777L100.514 96.7799L101.033 96.5958L101.221 96.523L101.397 96.4559L101.463 96.429L101.58 96.3791L101.612 96.3638L101.875 96.243L102.101 96.1509L102.231 96.1011L102.786 95.8997L103.05 95.8173L103.961 95.5219L104.277 95.4165L104.421 95.3666L104.695 95.2707L104.804 95.2305L105.567 95.0118L105.832 94.9543L105.953 94.9351L106.185 94.9006L106.279 94.8949L106.735 94.8258L106.831 94.7932L106.856 94.7779L106.89 94.7434L106.879 94.7261L107 94.6398L107.209 94.5439L107.364 94.4806L107.701 94.3464L107.903 94.2716L108.322 94.1182L108.547 94.0396L109.473 93.7212L109.881 93.5947L110.272 93.4758L110.429 93.4336L110.719 93.3588L110.811 93.3434L111.087 93.238L111.281 93.121L111.354 93.0539L111.58 92.91L111.722 92.8794L111.762 92.9062L111.885 92.91L112.021 92.8832L112.109 92.8544L112.504 92.7125L112.728 92.6032L113.407 92.306L113.61 92.2274L113.693 92.2005L113.844 92.1526L113.892 92.143L114.254 92.0337L114.528 91.9224L114.638 91.863L114.916 91.746L115.033 91.7307V91.7594L115.079 91.7786L115.15 91.7652L115.201 91.7479L115.449 91.652L115.608 91.5696L116.014 91.3874L116.108 91.3567L116.137 91.3529H116.183V91.3644L116.277 91.3586L116.426 91.3126L116.536 91.2723L116.773 91.1822L116.915 91.1228L117.216 90.9962L117.381 90.9214L118.313 90.5436L118.869 90.3557L119.091 90.2982L119.306 90.2483L119.396 90.233L119.563 90.2099L119.626 90.208M77.8867 100.504L77.4592 101.168L77.2502 101.494L76.8648 102.096L76.7728 102.238L76.6079 102.498L76.3894 102.842L76.259 103.045L75.9158 103.584L75.7854 103.787L76.0864 103.315L76.3894 102.838L76.6079 102.497L76.7728 102.236L76.8648 102.094L77.2502 101.494L77.4592 101.168L77.8867 100.504L78.0976 100.176ZM86.9839 97.7426L87.1162 97.9325L87.4037 98.339L87.5801 98.5864L87.954 99.1099L88.1783 99.4206L88.278 99.5587L88.2454 99.5146L87.86 98.9872L87.676 98.736L87.3673 98.3007L87.2216 98.0936L86.98 97.7426L86.8688 97.5777L86.8497 97.5489M86.5506 95.9975L86.3991 96.2718L86.3512 96.3676L86.3358 96.4022L86.3378 96.3791L86.3512 96.3427L86.4643 96.1414L86.5314 96.0244L86.6004 95.9132M88.4697 92.9772L88.3259 93.1996L88.0479 93.6311L87.9195 93.8305L87.4612 94.5382L87.5399 94.4174L87.6894 94.1834L88.0307 93.656L88.2051 93.3876L88.5598 92.8391L88.6307 92.7279M91.8651 87.6997L91.6829 87.9835L91.5066 88.2558L91.4299 88.3747L91.2842 88.601L91.2247 88.6931L90.5019 89.8187L90.061 90.5034L89.8597 90.8179L89.6871 91.0863L89.8616 90.814L90.0073 90.5877L90.3179 90.1026L90.4751 89.859L90.7819 89.3834L91.1941 88.741L91.2554 88.6451L91.405 88.4131L91.4836 88.2903L91.6638 88.0123L91.8497 87.7246L92.283 87.0553L93.6481 84.9536L92.2926 87.04M120.098 90.1064L120.293 90.582L120.313 90.6242L120.359 90.7316L120.343 90.7105L120.276 90.5781L120.238 90.4899L120.085 90.0834L120.058 89.9856M119.912 89.4985L119.945 89.5733L119.989 89.6941L120.017 89.8111V89.8341L120.035 89.9069L120.017 89.8437L119.868 89.4026M119.243 88.0698L119.279 88.1599L119.366 88.3651L119.599 88.8503L119.544 88.7851L119.483 88.6739L119.448 88.601L119.304 88.2635L119.241 88.0679L119.216 87.9969M118.346 85.7801L118.499 86.1579L118.677 86.5836L118.769 86.7945L118.957 87.2663L119.001 87.3794L119.076 87.5827L119.12 87.7189L119.03 87.4696L118.98 87.3353L118.767 86.7945L118.675 86.5836L118.497 86.1579L118.346 85.7801L118.259 85.5634Z" fill="#90CAF7"/>
<path d="M103.054 61.2913L102.914 61.5118L102.607 61.9874L102.45 62.2329L102.113 62.7602L101.938 63.0306L101.566 63.6136L101.374 63.9108L100.966 64.5494L100.757 64.8754L100.312 65.5716L100.086 65.9263L99.603 66.6819L98.8322 67.8862L98.5197 68.3733L97.8525 69.4184L97.517 69.94L96.8594 70.9641L96.7003 71.2134L96.3955 71.6871L96.2459 71.9191L95.9718 72.3468L95.8376 72.5539L95.6017 72.9201L95.3026 73.3842L95.0036 73.8445L94.4265 74.7381L94.1408 75.1811L93.5925 76.0287L93.3241 76.4449L92.8179 77.233L92.5687 77.6185L92.1086 78.3338L91.8862 78.6809L91.4816 79.3099L91.288 79.6129L90.9487 80.1441L90.7876 80.3972L90.5192 80.8172L90.2105 81.31L90.0284 81.5996L89.691 82.1174L89.6143 82.2305L89.4916 82.4108L89.3708 82.5738L89.3459 82.6025L89.2749 82.708L89.2366 82.7655L89.1465 82.9151L88.857 83.4367L88.765 83.617L88.5809 83.9277L88.5368 83.9948L88.464 84.0983L88.3854 84.1866L88.347 84.2134L88.2166 84.3918L88.0019 84.7504L87.9348 84.8788L87.7795 85.1396L87.5859 85.4215L87.5629 85.4484L87.4766 85.5673L87.4287 85.6363L87.304 85.8185L86.8669 86.4878L86.8286 86.5472L86.727 86.7064L86.6714 86.7927L86.5391 87.0017L86.3991 87.2184L86.0502 87.7611L85.8681 88.0449L85.4693 88.6663L84.8577 89.6117L84.6583 89.9224L84.2921 90.5034L84.1176 90.7815L83.8281 91.259L83.761 91.3683L83.6479 91.5601L83.5962 91.6502L83.5137 91.7979L83.4773 91.865L83.4294 91.9609L83.3987 92.0414V92.0874L83.3546 92.1776L83.2453 92.2735L83.2357 92.2773L83.184 92.3348L83.1533 92.3712L83.067 92.4863L83.0191 92.5515L82.9021 92.7203L82.8389 92.8085L82.6932 93.0213L82.5436 93.2457L82.1793 93.798L81.5812 94.7338L81.3741 95.0637L80.8871 95.8308L80.636 96.2239L80.1126 97.0466L79.8518 97.455L79.3534 98.2317L79.2326 98.4196L79.0083 98.7687L78.7034 99.2404L78.5155 99.53L78.0976 100.176L77.8867 100.504L77.4592 101.168L77.2502 101.494L76.8648 102.094L76.7728 102.236L76.6079 102.497L76.3894 102.838L76.0864 103.315L75.5573 104.146L75.3042 104.541L74.869 105.218L74.662 105.54L74.3149 106.077L74.1501 106.328L73.8816 106.737L73.7551 106.927L73.5557 107.218L73.4656 107.35L73.3295 107.54L73.2681 107.621L73.1857 107.719L73.1128 107.774H73.0822L73.0956 107.699L73.2125 107.517L73.272 107.446L73.3276 107.299L73.3046 107.137L73.2701 107.105L73.2873 106.969L73.4196 106.731L73.5193 106.612L73.6037 106.424L73.6267 106.34L73.5749 106.236L73.5346 106.198L73.364 106.196L72.9978 106.326L72.8521 106.403L72.6259 106.484L72.5779 106.499L72.5128 106.505L72.4706 106.478V106.443L72.4035 106.459L72.2405 106.585L72.1772 106.648L71.9491 106.748L71.5733 106.815H71.4775L71.2014 106.863L71.0518 106.896L70.6665 107.009L70.4613 107.072L69.9705 107.249L69.1155 107.582L69.0714 107.602L68.8528 107.676L68.7263 107.719L68.3812 107.834L68.1971 107.893L67.7715 108.029L67.5529 108.098L67.0966 108.242L66.8685 108.315L66.4294 108.451L66.2147 108.518L65.8389 108.631L65.6645 108.685L65.3999 108.762L65.1852 108.817L65.1718 108.821L65.097 108.844L65.0529 108.858L64.9302 108.902L64.7979 108.948L64.4375 109.084L64.2515 109.155L63.8642 109.306L63.3638 109.51L63.337 109.521L63.2373 109.559L63.1817 109.581L63.0264 109.636L62.8577 109.698L62.3899 109.861L62.1368 109.947L61.5444 110.148L60.5839 110.47L60.2541 110.582L59.6099 110.804L59.2955 110.913L58.7318 111.117L58.4634 111.214L58.0416 111.377L57.9496 111.414L57.8001 111.477L57.6409 111.55L57.4914 111.627L57.1636 111.769L56.7782 111.901L56.5846 111.943L56.1206 112.062L55.879 112.127L55.3499 112.279L54.8112 112.436L53.6972 112.795L53.4288 112.885L52.9323 113.059L52.6926 113.144L52.2804 113.299L52.0887 113.374L51.803 113.5L51.5557 113.64L51.4503 113.734L51.1608 113.901L50.7505 114.045L50.6335 114.062L50.3095 114.143L49.8475 114.292L49.7152 114.342L49.326 114.453L48.7432 114.58L48.586 114.607L48.2294 114.687L48.0453 114.732L47.6523 114.845L47.2535 114.962L46.4425 115.253L46.247 115.328L45.8789 115.481L45.7006 115.558L45.3881 115.706L45.2404 115.78L45.0027 115.917L44.7592 116.097L44.7017 116.156L44.5522 116.352L44.3489 116.668L44.3144 116.73L44.2511 116.816L44.2205 116.854L44.163 116.889L44.1074 116.91L44.0096 116.803L43.9712 116.741L43.9655 116.576L44.0537 116.348L44.0805 116.316L44.1438 116.197L44.1783 116.129L44.255 115.959L44.4793 115.349L44.5464 115.138L44.6921 114.751L44.7266 114.664L44.788 114.524L44.8627 114.39L44.8819 114.363L44.9375 114.256L44.9663 114.193L45.0334 114.03L45.2443 113.431L45.3094 113.22L45.4877 112.72L45.5318 112.599L45.6181 112.373L45.7351 112.089L45.7542 112.045L45.8271 111.87L45.8674 111.771L45.9805 111.493L46.0418 111.341L46.1894 110.973L46.2681 110.779L46.4444 110.334L46.5365 110.102L46.7397 109.594L46.8432 109.333L47.0656 108.773L47.2918 108.204L47.7788 106.969L48.0261 106.344L48.5246 105.078L48.77 104.453L49.2359 103.264L49.349 102.976L49.5618 102.431L49.6653 102.167L49.8552 101.68L49.9472 101.444L50.1082 101.024L50.3153 100.487L50.4111 100.236L50.6009 99.7486L50.693 99.5127L50.8598 99.087L50.9384 98.8875L51.0649 98.575L51.1876 98.2816L51.1991 98.2547L51.2643 98.0994L51.3027 98.0054L51.4158 97.7235L51.4771 97.5701L51.6324 97.1808L51.7148 96.9737L51.9066 96.4904L52.0063 96.2373L52.2287 95.6754L52.3418 95.3859L52.5891 94.7607L53.3905 92.7203L53.6685 92.0088L54.1919 90.6798L54.3165 90.3596L54.5523 89.7651L54.6674 89.4755L54.8763 88.9501L54.976 88.6989L55.1505 88.2597L55.2349 88.0526L55.3691 87.717L55.4323 87.5617L55.5224 87.3412L55.601 87.159L55.6624 87.0305L55.8273 86.6642L55.9155 86.4648L56.1187 85.9911L56.3257 85.5002L56.7801 84.3918L56.8894 84.1194L57.0965 83.5997L57.1962 83.3485L57.3668 82.9055L57.4454 82.6965L57.5623 82.3743L57.6582 82.0771L57.664 82.0502L57.7119 81.9045L57.7368 81.8336L57.7617 81.8182L57.8442 81.7588L57.9055 81.707L58.0378 81.59L58.1183 81.5114L58.287 81.3484L58.3791 81.2525L58.6398 80.9974L58.7913 80.8594L58.8526 80.8095L58.9638 80.727L58.9964 80.7117L59.0501 80.6964V80.7175L59.1613 80.727L59.3377 80.6944L59.4661 80.6618L59.7461 80.589L59.9128 80.541L60.2637 80.4356L60.4554 80.3761L61.2491 80.1153L61.6268 79.9791L61.9969 79.8411L62.1617 79.7778L62.4742 79.6512L62.5969 79.5937L62.8059 79.5074L62.9881 79.4403L63.0935 79.4038L63.5364 79.2543L63.7473 79.191L64.3416 78.98L64.5046 78.9091L64.5659 78.8765L64.6714 78.817L64.6963 78.794L64.9206 78.6751L65.1162 78.6253H65.2063L65.3654 78.5927L65.559 78.5428L65.6932 78.5025L65.9866 78.4162L66.1649 78.3625L66.5445 78.2456L66.7592 78.1784L67.2059 78.0384L67.4494 77.9617L67.9479 77.8007L68.2105 77.7163L69.2976 77.3634L69.8555 77.1793L70.9732 76.8092L71.4986 76.6328L72.0162 76.4583L72.2597 76.3758L72.7332 76.2147L72.948 76.1399L73.3602 75.9961L73.5385 75.9328L73.874 75.812L74.0063 75.7641L74.2498 75.672L74.3303 75.6394L74.4626 75.5819L74.4837 75.5685L74.6715 75.4822L74.8939 75.3959L75.0416 75.3422L75.3579 75.231L75.54 75.1696L75.9158 75.0449L76.1133 74.9836L76.6865 74.7937L77.0355 74.671L77.1831 74.6154L77.4534 74.5099L77.5493 74.4677L77.7084 74.3929L77.7333 74.3718L77.9883 74.2606L78.226 74.2146H78.3449L78.6843 74.159L78.8606 74.0746L78.8932 74.0228L79.0869 73.8867L79.2844 73.831H79.386L79.7483 73.7754L80.0033 73.693L80.0934 73.6393L80.195 73.5932L80.3024 73.5472L80.3752 73.5185L80.7146 73.39L80.9485 73.3056L81.4585 73.1215L81.7652 73.0141L82.4094 72.7897L82.7718 72.6651L83.5195 72.4081L83.9221 72.2739L84.7388 71.9977L85.1606 71.8577L86.8803 71.2901L87.7124 71.0216L88.9816 70.5921L89.3593 70.454L89.5127 70.3965L89.7926 70.2872L89.8789 70.2488L90.5211 70.0187L90.9947 69.8902L91.1787 69.8595L91.6791 69.7349L91.8076 69.685L91.8536 69.6601L91.9322 69.6083L91.9456 69.5872L92.145 69.4683L92.3597 69.4204H92.4786L92.839 69.3647L93.048 69.2804L93.0998 69.2286L93.186 69.1787L93.2953 69.1289L93.3739 69.0963L93.5407 69.0272L93.6443 68.987L93.8628 68.9026L93.9874 68.8546L94.5243 68.6533L94.8291 68.5421L95.4579 68.3158L95.782 68.2026L96.4261 67.9763L96.7271 67.8747L97.31 67.6772L97.5515 67.5986L97.7835 67.5257L97.8813 67.495L98.0654 67.4375L98.1363 67.4183L98.2647 67.3838L98.3031 67.3761L98.3644 67.3665L98.3683 67.3723L98.4469 67.8325L98.4335 67.9648L98.4143 68.007L98.3702 68.078H98.3357L98.2245 68.1202L98.19 68.1815L98.2015 68.2218L98.19 68.3273L98.1574 68.4366L98.1305 68.5056L98.0002 68.8182L97.9081 68.9889L97.7145 69.3686L97.6378 69.5316L97.6282 69.5699L97.6225 69.616L97.6474 69.5968L97.7126 69.5316L97.7701 69.4549L97.9024 69.2765L97.9925 69.148L98.1881 68.8604L98.3108 68.6763L98.5715 68.2832L98.7249 68.0473L99.047 67.5506L99.231 67.263L100.479 65.3088L101.242 64.116L101.589 63.5752L102.258 62.532L102.557 62.066L103.131 61.1724L103.211 61.0477M109.618 64.2119L110.134 65.4891L110.312 65.9378L110.669 66.8238L110.844 67.2572L111.164 68.0454L111.24 68.2314L111.378 68.5708L111.446 68.7357L111.563 69.0196L111.618 69.1538L111.71 69.3724L111.814 69.6121L111.888 69.7866L112.019 70.082L112.08 70.2239L112.191 70.4789L112.299 70.7301L112.512 71.2479L112.569 71.3898L112.699 71.7158L112.768 71.8884L112.931 72.3026L113.02 72.5232L113.229 73.0544L113.606 74.0228L113.744 74.3757L114.043 75.1312L114.195 75.5148L114.513 76.3087L114.831 77.1045L115.464 78.6655L115.617 79.0433L115.907 79.7452L116.047 80.0865L116.298 80.6925L116.417 80.9802L116.618 81.4539L116.848 81.9812L116.883 82.0598L116.998 82.3341L117.059 82.4856L117.213 82.8672L117.724 84.1866L117.893 84.6353L118.259 85.5635L118.346 85.7802L118.497 86.1579L118.675 86.5837L118.767 86.7946L118.98 87.3354L119.03 87.4696L119.124 87.7285L119.241 88.068L119.304 88.2636L119.448 88.6011L119.483 88.6739L119.544 88.7852L119.622 88.8772L119.642 88.8906L119.699 88.9827L119.73 89.0383L119.801 89.1994L120.017 89.8437L120.085 90.0834L120.238 90.49L120.276 90.5782L120.343 90.7105L120.428 90.8179L120.472 90.8467L120.545 90.9522L120.593 91.1305V91.1593L120.562 91.1765L120.543 91.1804L120.479 91.1497L120.209 90.8985L120.104 90.7777L119.939 90.5399L119.904 90.4862L119.856 90.3941L119.826 90.2982V90.2675L119.774 90.2292L119.739 90.2158L119.626 90.2081L119.563 90.21L119.396 90.233L119.306 90.2484L119.091 90.2982L118.869 90.3558L118.313 90.5437L117.381 90.9215L117.216 90.9963L116.915 91.1228L116.774 91.1823L116.536 91.2724L116.426 91.3127L116.277 91.3587L116.183 91.3645V91.353H116.137L116.108 91.3568L116.014 91.3875L115.608 91.5697L115.449 91.6521L115.201 91.748L115.15 91.7653L115.079 91.7787L115.033 91.7595V91.7307L114.916 91.7461L114.638 91.8631L114.528 91.9225L114.254 92.0337L113.892 92.143L113.844 92.1526L113.693 92.2006L113.61 92.2274L113.407 92.306L112.728 92.6033L112.504 92.7126L112.109 92.8545L112.021 92.8833L111.885 92.9101L111.762 92.9063L111.722 92.8794L111.58 92.9101L111.354 93.0539L111.281 93.1211L111.087 93.238L110.811 93.3435L110.719 93.3589L110.429 93.4336L110.272 93.4758L109.881 93.5947L109.473 93.7213L108.547 94.0396L108.322 94.1183L107.903 94.2717L107.701 94.3465L107.364 94.4807L107.209 94.544L107 94.6399L106.879 94.7262L106.89 94.7434L106.856 94.778L106.831 94.7933L106.735 94.8259L106.279 94.8949L106.185 94.9007L105.953 94.9352L105.832 94.9544L105.567 95.0119L104.804 95.2305L104.695 95.2708L104.421 95.3667L104.277 95.4165L103.961 95.522L103.05 95.8173L102.786 95.8998L102.231 96.1012L102.101 96.151L101.875 96.2431L101.612 96.3639L101.58 96.3792L101.463 96.4291L101.397 96.4559L101.221 96.523L101.033 96.5959L100.514 96.78L100.236 96.8778L99.5876 97.0964L98.5447 97.4359L98.1881 97.549L97.4001 97.8117L96.9994 97.9479L96.1961 98.2279L95.8011 98.3679L95.0764 98.6325L94.9039 98.6958L94.5914 98.8147L94.183 98.9738L93.9395 99.0717L93.4947 99.2442L93.2819 99.3248L92.9311 99.4533L92.77 99.5089L92.5495 99.5779L92.4096 99.6009V99.5779L92.2888 99.6048L91.9993 99.7333L91.8862 99.7946L91.5353 99.9174L90.9928 100.048L90.8317 100.073L90.5556 100.142L90.4272 100.178L90.2144 100.272L90.1166 100.32L89.969 100.439L89.9038 100.5L89.8194 100.644L89.7849 100.719L89.7638 100.89L89.76 100.978L89.8022 101.175L89.829 101.279L89.9325 101.505L90.1569 101.877L90.2565 102.023L90.385 102.249L90.4099 102.297L90.4349 102.362L90.4272 102.405H90.4214L90.3812 102.364L90.3562 102.339L90.2815 102.251L90.199 102.151L89.9498 101.833L89.8137 101.657L89.482 101.214L89.3094 100.982L88.9279 100.46L88.6518 100.077L88.1783 99.4207L87.954 99.11L87.5801 98.5865L87.4037 98.3391L87.1162 97.9325L86.9839 97.7427L86.773 97.4359L86.6771 97.294L86.5333 97.0734L86.4701 96.9718L86.3819 96.8222L86.3435 96.7532L86.3013 96.6573L86.2783 96.5556V96.5288L86.3512 96.3677L86.3991 96.2718L86.5506 95.9976L86.6349 95.8499L86.8477 95.499L87.2101 94.9256L87.4287 94.5881L87.9195 93.8306L88.0479 93.6312L88.3259 93.1997L88.4697 92.9772L88.7803 92.4959L88.9394 92.2466L89.2884 91.7058L89.4686 91.4277L89.8597 90.8179L90.061 90.5034L90.5019 89.8188L91.2247 88.6931L91.2842 88.6011L91.4299 88.3748L91.5066 88.2559L91.683 87.9836L91.8651 87.6998L92.2926 87.0401L93.6481 84.9536L94.0507 84.3342L94.8924 83.0379L95.318 82.382L96.1846 81.0396L98.7881 76.9952L98.9243 76.7843L99.1792 76.3912L99.302 76.2032L99.5148 75.883L99.6125 75.7353L99.7583 75.5244L99.8771 75.3652L99.8925 75.3518L99.9481 75.2751L99.9787 75.229L100.061 75.1005L100.356 74.5981L100.46 74.414L100.667 74.0669L100.715 73.9902L100.797 73.8617L100.887 73.7352L100.909 73.7102L100.991 73.5932L101.039 73.5261L101.171 73.3324L101.242 73.227L101.419 72.9662L101.511 72.8281L101.721 72.5117L101.94 72.1818L102.456 71.3937L102.724 70.9852L103.297 70.1031L103.587 69.6581L104.166 68.7645L104.45 68.3234L104.977 67.4988L105.103 67.3013L105.339 66.9312L105.452 66.7529L105.656 66.4288L105.753 66.2753L105.92 66.0069L106.12 65.6809L106.246 65.4699L106.428 65.1746L106.219 65.5255L106.102 65.7288L105.801 66.2562L106.15 65.7806L106.482 65.374L106.71 65.1286L106.789 65.0614L107.132 64.7623L107.423 64.5053L107.556 64.3864L107.945 64.0988L108.058 64.0393L108.104 64.024L108.184 64.0048L108.209 64.0125L108.376 63.9837L108.491 63.8955L108.533 63.8284L108.623 63.7306L108.692 63.7056L108.735 63.7133L108.825 63.7459L108.88 63.7843L109.001 63.8763L109.078 63.9434L109.356 64.2733L109.473 64.49V64.559L109.528 64.7412L109.609 64.8179H109.663L109.703 64.7393L109.697 64.6127L109.678 64.5226L109.63 64.3231L109.592 64.2023L109.505 63.9492L109.45 63.8111L109.342 63.5388M61.5827 72.0073L61.5099 72.1857L61.3565 72.5635L61.2683 72.784L61.0823 73.2423L60.9807 73.4974L60.7698 74.019L60.6586 74.299L60.4305 74.8685L60.3135 75.1657L60.1966 75.4611L60.2349 75.3633L60.4688 74.7726L60.9021 73.6834L61.0057 73.4245L61.1974 72.9489L61.2894 72.7188L61.4543 72.3141L61.5329 72.1205L61.6671 71.8021L61.8224 71.4339L61.6978 71.7273M107.933 62.9482L107.674 63.347L107.515 63.5867L107.446 63.6865L107.318 63.8725L107.272 63.9339L107.193 64.0374L107.178 64.0508L107.024 64.2445L106.988 64.2963L107.046 64.21L107.166 64.0508L107.184 64.0374L107.266 63.9339L107.312 63.8706L107.442 63.6865L107.513 63.5867L107.676 63.3451L107.935 62.9462M108.023 62.8082L108.025 62.8063V62.8043L108.023 62.8082Z" fill="#8FA4DB"/>
<path d="M99.4918 39.9339L99.5896 39.978L99.6624 40.0413L99.8292 40.1966L99.9519 40.3193L100.312 40.6569L100.395 40.7259L100.422 40.7431L100.462 40.7662V40.7547L100.441 40.6779L100.514 40.8755L100.59 41.0845L100.715 41.4086L100.836 41.7097L100.861 41.7614L100.922 41.9187L100.955 42.0031L101.026 42.2063L101.238 42.8603L101.302 43.0712L101.472 43.5717L101.516 43.6926L101.603 43.9188L101.718 44.2027L101.746 44.2698L101.844 44.5133L101.9 44.6533L102.053 45.0522L102.136 45.2708L102.347 45.8327L102.46 46.1338L102.732 46.8663L102.876 47.2556L103.211 48.1665L103.388 48.6459L103.792 49.7467L103.896 50.0343L104.12 50.6442L104.233 50.9548L104.475 51.6164L104.597 51.952L104.858 52.6635L105.268 53.7892L105.393 54.1286L105.594 54.6886L105.686 54.9494L105.826 55.3751L105.888 55.5745L105.964 55.9025L105.995 56.0559L106.01 56.3205V56.4471L105.962 56.6791L105.93 56.7942L105.819 57.0301L105.755 57.1509L105.583 57.4251L105.251 57.9141L105.192 58.0004L105 58.2881L104.893 58.4511L104.605 58.8922L104.45 59.1299L104.066 59.7225L103.861 60.0389L103.382 60.7811L103.131 61.1723L102.557 62.0659L102.258 62.5319L101.589 63.5751L101.242 64.1159L100.479 65.3087L99.231 67.2629L99.047 67.5505L98.7249 68.0472L98.5715 68.2831L98.3108 68.6762L98.1881 68.8603L97.9925 69.1479L97.9024 69.2764L97.7701 69.4548L97.7126 69.5315L97.6474 69.5967L97.6225 69.6159L97.6282 69.5698L97.6378 69.5315L97.7145 69.3685L97.9082 68.9888L98.0002 68.8181L98.1306 68.5055L98.1574 68.4365L98.19 68.3272L98.2015 68.2217L98.19 68.1814L98.2245 68.1201L98.3357 68.0779H98.3702L98.4143 68.0069L98.4335 67.9647L98.4469 67.8324L98.3683 67.3722L98.3645 67.3664L98.3031 67.376L98.2648 67.3837L98.1363 67.4182L98.0654 67.4374L97.8813 67.4949L97.7835 67.5256L97.5516 67.5985L97.31 67.6771L96.7272 67.8746L96.4262 67.9762L95.782 68.2025L95.458 68.3157L94.8291 68.542L94.5243 68.6532L93.9875 68.8545L93.8628 68.9025L93.6443 68.9869L93.5407 69.0271L93.374 69.0962L93.2953 69.1288L93.1861 69.1786L93.0998 69.2285L93.048 69.2803L92.839 69.3646L92.4786 69.4203H92.3597L92.145 69.4682L91.9456 69.5871L91.9322 69.6082L91.8536 69.66L91.8076 69.6849L91.6791 69.7348L91.1787 69.8594L90.9947 69.8901L90.5211 70.0186L89.8789 70.2487L89.7926 70.2871L89.5127 70.3964L89.3593 70.4539L88.9816 70.592L87.7124 71.0215L86.8804 71.29L85.1606 71.8576L84.7388 71.9976L83.9221 72.2738L83.5195 72.408L82.7718 72.665L82.4094 72.7896L81.7652 73.014L81.4585 73.1214L80.9485 73.3055L80.7146 73.3899L80.3753 73.5184L80.3024 73.5471L80.195 73.5931L80.0934 73.6392L80.0033 73.6929L79.7483 73.7753L79.386 73.8309H79.2844L79.0869 73.8866L78.8933 74.0227L78.8607 74.0745L78.6843 74.1589L78.3449 74.2145H78.2261L77.9883 74.2605L77.7333 74.3717L77.7084 74.3928L77.5493 74.4676L77.4534 74.5098L77.1831 74.6153L77.0355 74.6709L76.6865 74.7936L76.1133 74.9835L75.9158 75.0448L75.5401 75.1695L75.3579 75.2309L75.0416 75.3421L74.894 75.3958L74.6716 75.4821L74.4837 75.5684L74.4626 75.5818L74.3303 75.6393L74.2498 75.6719L74.0063 75.764L73.874 75.8119L73.5385 75.9327L73.3602 75.996L72.948 76.1398L72.7333 76.2146L72.2597 76.3757L72.0162 76.4582L71.4986 76.6327L70.9733 76.8091L69.8555 77.1792L69.2976 77.3633L68.2106 77.7162L67.9479 77.8006L67.4494 77.9616L67.2059 78.0383L66.7592 78.1783L66.5445 78.2455L66.1649 78.3624L65.9866 78.4161L65.6933 78.5024L65.5591 78.5427L65.3654 78.5926L65.2063 78.6252H65.1162L64.9206 78.675L64.6963 78.7939L64.6714 78.8169L64.5659 78.8764L64.5046 78.909L64.3416 78.9799L63.7473 79.1909L63.5364 79.2542L63.0935 79.4037L62.9881 79.4402L62.8059 79.5073L62.597 79.5936L62.4743 79.6511L62.1618 79.7777L61.9969 79.841L61.6268 79.979L61.2492 80.1152L60.4554 80.376L60.2637 80.4355L59.9129 80.5409L59.7461 80.5889L59.4662 80.6617L59.3377 80.6943L59.1613 80.7269L59.0501 80.7174V80.6963L58.9964 80.7116L58.9638 80.7269L58.8526 80.8094L58.7913 80.8593L58.6398 80.9973L58.3791 81.2524L58.2871 81.3483L58.1184 81.5113L58.0378 81.5899L57.9055 81.7069L57.8442 81.7587L57.7618 81.8181L57.7272 81.8411L57.7081 81.8296V81.822L57.7483 81.705L57.7752 81.6302L57.8653 81.3924L57.9151 81.2601L58.0474 80.9187L58.1184 80.7365L58.2852 80.307L58.3714 80.0826L58.567 79.584L58.6686 79.327L58.8852 78.7728L59.1076 78.209L59.5889 76.9913L59.8304 76.3796L60.3136 75.1657L60.4305 74.8684L60.6587 74.2989L60.7699 74.0189L60.9808 73.4973L61.0824 73.2422L61.2683 72.7839L61.3565 72.5634L61.5099 72.1856L61.5828 72.0072L61.6978 71.7272L61.8224 71.4338L61.8914 71.2766L62.0429 70.8873L62.2154 70.3791L62.2346 70.3139L62.3055 70.1125L62.3458 70.0052L62.4474 69.7424L62.8117 68.8871L62.9363 68.6091L63.1338 68.1143L63.176 68.005L63.2316 67.8343L63.268 67.679V67.6502L63.2967 67.539L63.314 67.4738L63.3734 67.3031L63.6303 66.678L63.6553 66.6224L63.7204 66.4689L63.7569 66.3846L63.8412 66.1832L63.9313 65.9703L64.1518 65.4334L64.2668 65.1515L64.518 64.5282L64.8995 63.5713L65.2312 62.7294L65.8505 61.1608L66.1534 60.3956L66.7132 58.988L66.9855 58.3053L67.4801 57.0665L67.7197 56.4701L68.1473 55.4115L68.2508 55.1584L68.4406 54.6867L68.5346 54.4565L68.709 54.0327L68.7934 53.8275L68.9468 53.4536L69.0215 53.2714L69.1577 52.9473L69.2228 52.7901L69.3398 52.5178L69.3954 52.3873L69.4912 52.1649L69.5373 52.0613L69.612 51.8926L69.7041 51.7008L69.7788 51.5474L69.8977 51.231L69.9226 51.1562L69.9571 51.0296L69.9782 50.8839V50.8705L70.0051 50.7784L70.0223 50.7228L70.0818 50.5502L70.1143 50.4562L70.2006 50.2146L70.2485 50.0861L70.3597 49.7831L70.4192 49.624L70.5534 49.2711L70.6224 49.087L70.7739 48.692L70.9292 48.2854L71.2762 47.3879L71.4296 46.9948L71.2685 47.409L70.9234 48.3008L70.77 48.7035L70.6205 49.0947L70.5515 49.2769L70.4211 49.6259L70.3636 49.7831L70.2524 50.0823L70.2064 50.2089L70.1201 50.4467L70.0894 50.5406L70.0319 50.7094L70.0146 50.765L69.9897 50.8532V50.8666L69.9993 50.9184L70.0089 50.9222L70.0357 50.9203L70.053 50.9011L70.1354 50.7727L70.1872 50.6461L70.4441 50.205L70.6723 49.9308L70.7892 49.8253L71.0174 49.6451L71.1075 49.6125L71.1899 49.5914L71.2206 49.599L71.2743 49.6278L71.2877 49.6642L71.4142 49.7659L71.558 49.7141L71.6635 49.6278L71.8513 49.507L71.8724 49.5127L71.8705 49.5281L71.8552 49.5684L71.836 49.6029L71.7919 49.7103L71.7977 49.7582L71.813 49.7735L71.9127 49.8004L72.0028 49.7755L72.2022 49.7026L72.3211 49.6336L72.5665 49.4763L72.6853 49.3708L72.8406 49.2423L72.9211 49.1848L72.948 49.1714L72.9921 49.1541L72.9978 49.1618L72.9997 49.1886L72.9825 49.2193L72.9729 49.3747L73.0688 49.4092L73.1474 49.3958L73.318 49.3497L73.41 49.2999L73.596 49.1829L73.6708 49.1004L73.7628 48.995L73.7954 48.9489V48.9374L73.7877 48.924L73.7685 48.9298L73.7206 48.9509L73.6823 48.9719L73.4906 49.0103L73.3755 48.97L73.3448 48.9202L73.3391 48.8109L73.4081 48.7802L73.4695 48.784L73.6056 48.8032L73.688 48.8339L73.8587 48.9048L73.9449 48.9585L74.152 48.9796L74.2843 48.9029L74.3284 48.8262L74.4779 48.7035L74.6524 48.6153L74.7693 48.5731L75.0186 48.4868L75.1604 48.4484L75.4557 48.3736L75.611 48.3449L76.5658 48.1186L76.8591 48.0304L76.9799 47.9882L77.2061 47.9038L77.2809 47.8654L77.557 47.7485L77.7832 47.6679L77.9078 47.6296L78.4216 47.4857L78.6479 47.4435L79.2556 47.3304L79.409 47.2997L79.4627 47.2882L79.5509 47.271L79.5643 47.2671L79.7867 47.2038L80.0417 47.131L80.1874 47.0907L80.5593 46.9354L80.6456 46.8778L80.6724 46.8491L80.7146 46.7935V46.7704L80.822 46.6496L80.9811 46.5998H81.0827L81.4566 46.5653L81.6751 46.5116L81.7595 46.4751L81.9071 46.3946L81.9435 46.3505L81.9876 46.2584L81.9589 46.2143L81.9991 46.1338L82.1276 46.128L82.2273 46.1549L82.5245 46.151L82.6951 46.0762L82.7353 46.011L82.7833 45.8672L82.7085 45.8749L82.6126 45.9305L82.4669 45.9919L82.4516 45.9669L82.4938 45.9209L82.7047 45.7732L82.8619 45.7215L82.929 45.7176L83.0536 45.7272L83.0824 45.7579L83.1169 45.8346L83.0785 45.8979L83.0651 45.9535L83.09 45.9573L83.1188 45.942L83.1878 45.9017L83.2338 45.8672L83.3373 45.7886L83.3987 45.7368L83.5636 45.6064L83.6499 45.545L83.6786 45.5316L83.7265 45.5124L83.7323 45.5201L83.7361 45.545L83.7189 45.5757L83.6767 45.6831L83.6825 45.7311L83.6997 45.7445L83.8013 45.7713L83.8895 45.7483L84.0889 45.6754L84.2078 45.6064L84.4532 45.4492L84.572 45.3437L84.7273 45.2152L84.8079 45.1577L84.8347 45.1442L84.8788 45.127L84.8845 45.1347L84.8865 45.1615L84.8692 45.1922L84.827 45.2996L84.8328 45.3475L84.85 45.3609L84.9516 45.3878L85.0398 45.3648L85.2392 45.2919L85.3581 45.2229L85.6035 45.0656L85.7224 44.9601L85.8777 44.8317L85.9582 44.7741L85.985 44.7607L86.0291 44.7434L86.0349 44.7511L86.0368 44.778L86.0195 44.8086L86.0157 44.9486L86.1001 44.9908L86.1691 44.9889L86.3167 44.9678L86.3934 44.9333L86.5468 44.8489L86.6043 44.7856L86.6311 44.7147L86.5583 44.7339L86.4854 44.776L86.3186 44.8393L86.3014 44.7952L86.3416 44.73L86.5276 44.6092L86.7097 44.5824L86.8018 44.6035H86.9935L87.1641 44.5728L87.2638 44.5459L87.6933 44.4021L87.9041 44.2947L88.1745 44.1528L88.3068 44.0761L88.3451 44.0512L88.4007 44.0071L88.3988 43.9994L88.3739 43.9917L88.3259 44.0051L88.1131 44.0224L88.0594 43.9745L88.0882 43.9265L88.3183 43.8172L88.5733 43.7904L88.717 43.8057L88.9644 43.7999L89.1561 43.7712L89.2577 43.7462L89.6661 43.6197L89.829 43.5276L90.1243 43.3857L90.362 43.2937L90.4905 43.2515L91.0196 43.0923L91.2458 43.054L91.9284 42.8526L92.1335 42.7606L92.216 42.7126L92.3693 42.6129L92.4173 42.565L92.5783 42.423L92.6684 42.3655L92.7029 42.354L92.77 42.3463L92.795 42.3617L92.839 42.4019L92.8525 42.4403L92.9771 42.5573L93.1036 42.4978L93.1995 42.4L93.3318 42.2389L93.326 42.2236L93.3088 42.2294L93.2628 42.2466L93.2244 42.2677L93.0557 42.3041L92.9848 42.2562V42.2006L93.0864 42.0568L93.234 41.9973H93.3299L93.65 41.9264L93.8628 41.8228L93.9338 41.7576L94.0392 41.6656L94.0852 41.6349L94.0967 41.633L94.1063 41.6675L94.0641 41.7442L94.0354 41.9417L94.0872 42.0625L94.1428 42.099L94.2846 42.1373H94.4073L94.4763 42.1258L94.7716 42.051L94.9211 41.9839L95.2087 41.8324L95.3103 41.748L95.4024 41.6617L95.4311 41.6195L95.4771 41.5332V41.4949L95.5193 41.3396L95.5902 41.2628L95.6439 41.2379L95.7628 41.1976L95.8395 41.1938L96.0044 41.1919L96.1002 41.2072L96.2018 41.1535L96.2459 41.0557L96.2479 40.9905L96.2958 40.8831L96.3744 40.9426L96.4357 41.0385L96.5354 41.1823L96.5776 41.2302H96.591L96.614 41.2149L96.6179 41.1823L96.6255 41.1018L96.6275 41.0385L96.637 40.8946L96.6505 40.8467H96.6639L96.6946 40.862L96.7195 40.8946L96.777 40.9752L96.8192 41.0385L96.9515 41.1785L97.0071 41.167V41.1037L97.1202 40.9733L97.2889 40.956L97.4039 40.9848L97.8238 40.9426L98.1363 40.7777L98.2974 40.6319L98.4795 40.4766L98.5715 40.4095L98.6022 40.3941L98.652 40.3769L98.6578 40.3884V40.4229L98.6348 40.4632L98.56 40.6032L98.5466 40.6511L98.5581 40.653L98.5926 40.6415L98.6329 40.6147L98.7249 40.5437L98.7958 40.4881L99.0278 40.35L99.1294 40.3462L99.1333 40.3922L99.185 40.3999L99.254 40.2867L99.2943 40.1832L99.3863 39.9857L99.4496 39.9243M108.744 62.0678L108.882 62.3728L108.905 62.4322L108.98 62.6201L109.02 62.7218L109.118 62.973L109.45 63.811L109.505 63.9491L109.592 64.2022L109.63 64.323L109.678 64.5225L109.697 64.6126L109.703 64.7392L109.663 64.8178H109.609L109.528 64.7411L109.473 64.5589V64.4899L109.356 64.2732L109.078 63.9433L109.001 63.8762L108.88 63.7842L108.825 63.7458L108.735 63.7132L108.692 63.7055L108.623 63.7305L108.533 63.8283L108.491 63.8954L108.376 63.9836L108.209 64.0124L108.184 64.0047L108.104 64.0239L108.058 64.0392L107.945 64.0987L107.556 64.3863L107.423 64.5052L107.132 64.7622L106.789 65.0614L106.71 65.1285L106.482 65.3739L106.15 65.7805L105.801 66.2561L106.102 65.7287L106.219 65.5254L106.449 65.14L106.562 64.954L106.768 64.626L106.865 64.4745L107.024 64.2444L107.178 64.0507L107.193 64.0373L107.272 63.9338L107.318 63.8724L107.446 63.6864L107.515 63.5866L107.674 63.3469L107.933 62.9481L108.023 62.81L108.19 62.5569L108.271 62.436L108.409 62.2366L108.474 62.1465L108.57 62.0199L108.646 61.9413H108.666M79.8231 46.9028L79.8595 46.9718L79.8327 47.0159L79.7713 47.0984L79.7407 47.129L79.6812 47.1751H79.6601L79.5796 47.129L79.5144 47.06L79.4876 47.0159L79.4972 46.9028L79.5854 46.8548H79.6601M98.7728 36.2941L98.8188 36.4188L99.0182 36.8867L99.0585 36.9691L99.1831 37.2721L99.2502 37.4428L99.3231 37.6327L99.2176 37.3603L99.1582 37.2184L99.0508 36.9615L99.0163 36.8867L98.8188 36.4188L98.7728 36.2941L98.7594 36.2462Z" fill="#8F88CB"/>
<path d="M69.9897 50.8667V50.8532L70.0146 50.765L70.0319 50.7094L70.0894 50.5407L70.1201 50.4467L70.2064 50.2089L70.2524 50.0823L70.3636 49.7832L70.4211 49.6259L70.5515 49.2769L70.6205 49.0947L70.77 48.7035L70.9234 48.3008L71.2685 47.4091L71.6213 46.4982L72.3671 44.6169L72.5473 44.1663L72.8828 43.3397L72.9633 43.1422L73.1148 42.7779L73.3199 42.285L73.387 42.1259L73.5634 41.6809L73.8069 41.0385L73.874 40.8544L74.0523 40.3961L74.2996 39.792L74.3341 39.7134L74.4185 39.5082L74.4626 39.4008L74.5584 39.1611L74.8307 38.4496L74.9745 38.0565L75.2256 37.3853L75.3445 37.067L75.5496 36.5339L75.6455 36.2846L75.8123 35.8761L76.0251 35.3813L76.0404 35.3449L76.0903 35.2298L76.1171 35.1666L76.1881 34.9959L76.2264 34.9019L76.3184 34.6756L76.3664 34.5567L76.4795 34.2768L76.5389 34.1291L76.6731 33.7954L76.7421 33.6228L76.8955 33.2374L76.9741 33.0379L77.1467 32.6007L77.2368 32.3763L77.4285 31.8912L77.5263 31.6419L77.7372 31.1068L77.8445 30.8326L78.0746 30.2496L78.3085 29.6551L78.83 28.3262L79.0984 27.6396L79.687 26.1323L80.6437 23.6834L80.8392 23.1829L81.2092 22.2375L81.2974 22.0112L81.4661 21.5836L81.5486 21.3765L81.6981 20.9968L81.7691 20.8146L81.8975 20.4943L81.957 20.3428L82.0586 20.0935L82.1046 19.9766L82.1736 19.8078L82.2369 19.6563L82.2484 19.6295L82.2944 19.5182L82.3212 19.453L82.396 19.2728L82.4343 19.175L82.5321 18.9333L82.582 18.8048L82.6989 18.5114L82.8178 18.2084L83.1034 17.4855L83.5655 16.3003L83.8818 15.4853L84.5433 13.8073L84.7062 13.3931L85.0264 12.5858L85.1836 12.1888L85.4846 11.4352L85.6322 11.0689L85.9026 10.3958L86.0349 10.0717L86.2649 9.50597L86.3742 9.23942L86.5525 8.80794L86.7519 8.34194L86.7864 8.26331L86.8688 8.05428L86.911 7.94498L87.0011 7.69568L87.2446 6.95161L87.3117 6.72725L87.4478 6.37631L87.4804 6.30152L87.536 6.2018L87.5993 6.1366H87.607L87.6376 6.1807L87.6549 6.20947L87.7028 6.30727L87.7546 6.41658L87.8984 6.76943L87.977 6.96504L88.161 7.45597L88.462 8.294L88.5637 8.59124L88.7631 9.14737L88.8589 9.41393L89.0315 9.87417L89.112 10.087L89.2385 10.3977L89.2654 10.4648L89.3075 10.5607L89.3516 10.6432L89.3708 10.67L89.4226 10.7697L89.4494 10.8273L89.5088 10.9749L89.6891 11.5061L89.7025 11.5521L89.7504 11.6998L89.7773 11.7823L89.8501 11.9932L89.8885 12.1064L89.9824 12.3729L90.0322 12.5129L90.1434 12.8255L90.2585 13.1457L90.5288 13.8841L90.964 15.0538L91.1135 15.4489L91.4548 16.3598L91.6293 16.8258L91.9878 17.7904L92.1661 18.2679L92.4997 19.1692L92.5802 19.3859L92.7278 19.7867L92.9272 20.3275L93.1688 20.9872L93.6845 22.3871L93.8072 22.7169L94.022 23.298L94.0718 23.4341L94.16 23.6719L94.2712 23.9711L94.3345 24.1418L94.4859 24.5541L94.5645 24.765L94.7294 25.2176L94.8119 25.4439L94.9691 25.8811L95.178 26.4641L95.2087 26.5504L95.2988 26.7997L95.3487 26.9358L95.4733 27.2753L95.5385 27.4555L95.6918 27.8717L95.7705 28.0865L95.9468 28.564L96.129 29.053L96.5373 30.1499L97.1777 31.8605L97.3924 32.43L97.7835 33.4828L97.8756 33.734L98.0481 34.2L98.1305 34.4244L98.2782 34.831L98.3491 35.0247L98.4699 35.3583L98.5255 35.5156L98.6137 35.7649L98.652 35.8799L98.7038 36.0334L98.7364 36.1465V36.1657L98.7594 36.2462L98.7728 36.2942L98.8188 36.4188L99.0163 36.8867L99.0508 36.9615L99.1582 37.2185L99.2176 37.3604L99.3595 37.7209L99.5071 38.1006L99.8426 38.9904L99.9251 39.209L100.078 39.6252L100.151 39.8246L100.274 40.1736L100.332 40.3347L100.412 40.5725L100.462 40.7547V40.7662L100.422 40.7432L100.395 40.7259L100.312 40.6569L99.9519 40.3194L99.8292 40.1967L99.6624 40.0413L99.5895 39.978L99.4918 39.9339L99.4496 39.9243L99.3863 39.9857L99.2943 40.1832L99.254 40.2868L99.185 40.3999L99.1332 40.3923L99.1294 40.3462L99.0278 40.3501L98.7958 40.4881L98.7249 40.5438L98.6329 40.6147L98.5926 40.6416L98.5581 40.6531L98.5466 40.6511L98.56 40.6032L98.6348 40.4632L98.6578 40.4229V40.3884L98.652 40.3769L98.6022 40.3942L98.5715 40.4095L98.4795 40.4766L98.2973 40.632L98.1363 40.7777L97.8238 40.9426L97.4039 40.9848L97.2889 40.9561L97.1202 40.9733L97.0071 41.1037V41.167L96.9515 41.1785L96.8192 41.0385L96.777 40.9752L96.7195 40.8947L96.6946 40.8621L96.6639 40.8468H96.6505L96.637 40.8947L96.6274 41.0385L96.6255 41.1018L96.6179 41.1823L96.614 41.2149L96.591 41.2303H96.5776L96.5354 41.1823L96.4357 41.0385L96.3744 40.9426L96.2958 40.8832L96.2478 40.9906L96.2459 41.0558L96.2018 41.1536L96.1002 41.2073L96.0044 41.1919L95.8395 41.1939L95.7628 41.1977L95.6439 41.238L95.5902 41.2629L95.5193 41.3396L95.4771 41.4949V41.5333L95.4311 41.6196L95.4023 41.6618L95.3103 41.7481L95.2087 41.8324L94.9211 41.9839L94.7716 42.0511L94.4763 42.1259L94.4073 42.1374H94.2846L94.1427 42.099L94.0871 42.0626L94.0354 41.9418L94.0641 41.7442L94.1063 41.6675L94.0967 41.633L94.0852 41.6349L94.0392 41.6656L93.9338 41.7577L93.8628 41.8229L93.65 41.9264L93.3298 41.9974H93.234L93.0864 42.0568L92.9847 42.2006V42.2563L93.0557 42.3042L93.2244 42.2678L93.2627 42.2467L93.3088 42.2294L93.326 42.2237L93.3318 42.239L93.1995 42.4001L93.1036 42.4979L92.9771 42.5573L92.8525 42.4404L92.839 42.402L92.7949 42.3617L92.77 42.3464L92.7029 42.3541L92.6684 42.3656L92.5783 42.4231L92.4173 42.565L92.3693 42.6129L92.2159 42.7127L92.1335 42.7606L91.9284 42.8527L91.2458 43.054L91.0196 43.0924L90.4905 43.2515L90.362 43.2937L90.1243 43.3858L89.829 43.5277L89.6661 43.6197L89.2577 43.7463L89.1561 43.7712L88.9644 43.8L88.717 43.8057L88.5732 43.7904L88.3183 43.8173L88.0882 43.9266L88.0594 43.9745L88.1131 44.0224L88.3259 44.0052L88.3739 43.9918L88.3988 43.9994L88.4007 44.0071L88.3451 44.0512L88.3068 44.0761L88.1745 44.1528L87.9041 44.2948L87.6932 44.4021L87.2638 44.546L87.1641 44.5728L86.9935 44.6035H86.8017L86.7097 44.5824L86.5276 44.6093L86.3416 44.7301L86.3014 44.7953L86.3186 44.8394L86.4854 44.7761L86.5583 44.7339L86.6311 44.7147L86.6043 44.7857L86.5468 44.849L86.3934 44.9333L86.3167 44.9679L86.1691 44.989L86.1 44.9909L86.0157 44.9487L86.0195 44.8087L86.0368 44.778L86.0349 44.7512L86.0291 44.7435L85.985 44.7608L85.9582 44.7742L85.8776 44.8317L85.7224 44.9602L85.6035 45.0657L85.3581 45.2229L85.2392 45.292L85.0398 45.3648L84.9516 45.3878L84.85 45.361L84.8328 45.3476L84.827 45.2996L84.8692 45.1922L84.8864 45.1616L84.8845 45.1347L84.8788 45.127L84.8347 45.1443L84.8078 45.1577L84.7273 45.2152L84.572 45.3437L84.4532 45.4492L84.2078 45.6065L84.0889 45.6755L83.8895 45.7484L83.8013 45.7714L83.6997 45.7445L83.6824 45.7311L83.6767 45.6832L83.7189 45.5758L83.7361 45.5451L83.7323 45.5202L83.7265 45.5125L83.6786 45.5317L83.6498 45.5451L83.5636 45.6065L83.3987 45.7369L83.3373 45.7886L83.2338 45.8673L83.1878 45.9018L83.1188 45.9421L83.09 45.9574L83.0651 45.9536L83.0785 45.8979L83.1169 45.8347L83.0824 45.758L83.0536 45.7273L82.929 45.7177L82.8619 45.7215L82.7047 45.7733L82.4938 45.921L82.4516 45.967L82.4669 45.9919L82.6126 45.9305L82.7085 45.8749L82.7833 45.8673L82.7353 46.0111L82.6951 46.0763L82.5244 46.1511L82.2273 46.1549L82.1276 46.1281L81.9991 46.1338L81.9589 46.2144L81.9876 46.2585L81.9435 46.3505L81.9071 46.3946L81.7595 46.4752L81.6751 46.5116L81.4566 46.5653L81.0827 46.5998H80.9811L80.822 46.6497L80.7146 46.7705V46.7935L80.6724 46.8491L80.6456 46.8779L80.5593 46.9354L80.1874 47.0907L80.0417 47.131L79.7867 47.2039L79.5643 47.2672L79.5508 47.271L79.4627 47.2883L79.409 47.2998L79.2556 47.3305L78.6478 47.4436L78.4216 47.4858L77.9078 47.6296L77.7832 47.668L77.5569 47.7485L77.2809 47.8655L77.2061 47.9038L76.9799 47.9882L76.8591 48.0304L76.5657 48.1186L75.611 48.3449L75.4557 48.3737L75.1604 48.4485L75.0186 48.4868L74.7693 48.5731L74.6524 48.6153L74.4779 48.7035L74.3284 48.8263L74.2843 48.903L74.152 48.9797L73.9449 48.9586L73.8586 48.9049L73.688 48.8339L73.6056 48.8032L73.4695 48.7841L73.4081 48.7802L73.3391 48.8109L73.3448 48.9202L73.3755 48.9701L73.4905 49.0104L73.6823 48.972L73.7206 48.9509L73.7685 48.9298L73.7877 48.9241L73.7954 48.9375V48.949L73.7628 48.995L73.6708 49.1005L73.596 49.1829L73.41 49.2999L73.318 49.3498L73.1474 49.3958L73.0688 49.4092L72.9729 49.3747L72.9825 49.2194L72.9997 49.1887L72.9978 49.1618L72.9921 49.1542L72.948 49.1714L72.9211 49.1849L72.8406 49.2424L72.6853 49.3709L72.5664 49.4764L72.321 49.6336L72.2022 49.7026L72.0028 49.7755L71.9127 49.8004L71.813 49.7736L71.7976 49.7583L71.7919 49.7103L71.836 49.6029L71.8552 49.5684L71.8705 49.5281L71.8724 49.5128L71.8513 49.507L71.6634 49.6279L71.558 49.7141L71.4142 49.7659L71.2877 49.6643L71.2742 49.6279L71.2206 49.5991L71.1899 49.5914L71.1075 49.6125L71.0173 49.6451L70.7892 49.8254L70.6722 49.9308L70.4441 50.2051L70.1872 50.6461L70.1354 50.7727L70.053 50.9012L70.0357 50.9204L70.0089 50.9223L69.9993 50.9185M79.8327 47.016L79.8595 46.9719L79.8231 46.9028L79.6601 46.8549H79.5854L79.4972 46.9028L79.4876 47.016L79.5144 47.0601L79.5796 47.1291L79.6601 47.1751H79.6812L79.7407 47.1291L79.7713 47.0984L79.8327 47.016Z" fill="#8F6CC7"/>
</svg>
